{"glyphs":{"0":{"ha":897,"x_min":0,"x_max":0,"o":"m 449 -17 b 82 478 233 -17 82 188 b 449 971 82 767 233 971 b 815 478 664 971 815 767 b 449 -17 815 188 664 -17 m 449 33 b 765 478 635 33 765 218 b 449 921 765 738 635 921 b 132 478 263 921 132 738 b 449 33 132 218 263 33 "},"1":{"ha":461,"x_min":0,"x_max":0,"o":"m 279 889 l 63 753 l 36 794 l 289 954 l 329 954 l 329 0 l 279 0 "},"2":{"ha":804,"x_min":0,"x_max":0,"o":"m 68 54 l 439 372 b 638 690 578 492 638 596 b 403 924 638 807 549 924 b 115 757 300 924 193 867 l 76 788 b 400 971 163 914 286 971 b 688 692 574 971 688 838 b 471 335 688 575 615 458 l 138 50 l 713 50 l 713 0 l 68 0 "},"3":{"ha":764,"x_min":0,"x_max":0,"o":"m 382 -17 b 56 167 256 -17 149 43 l 92 201 b 382 33 165 89 261 33 b 635 263 519 33 635 138 b 358 458 635 386 532 458 l 272 458 l 272 508 l 360 508 b 614 704 519 508 614 581 b 372 921 614 822 503 921 b 104 756 271 921 182 867 l 67 789 b 378 971 158 911 260 971 b 664 710 533 971 664 851 b 508 489 664 600 606 518 b 685 260 619 464 685 378 b 382 -17 685 110 546 -17 "},"4":{"ha":822,"x_min":0,"x_max":0,"o":"m 546 257 l 64 257 l 56 308 l 526 954 l 596 954 l 596 307 l 754 307 l 754 257 l 596 257 l 596 0 l 546 0 m 546 307 l 546 894 l 118 307 "},"5":{"ha":803,"x_min":0,"x_max":0,"o":"m 417 -17 b 78 135 288 -17 161 39 l 111 172 b 417 33 188 85 301 33 b 674 293 556 33 674 151 b 421 531 674 422 558 531 b 201 449 350 531 269 500 l 151 474 l 164 954 l 688 954 l 688 904 l 213 904 l 203 506 b 432 581 258 553 344 581 b 724 297 590 581 724 451 b 417 -17 724 126 583 -17 "},"6":{"ha":806,"x_min":0,"x_max":0,"o":"m 428 596 b 722 297 588 596 722 460 b 415 -17 722 126 582 -17 b 83 463 207 -17 83 161 b 439 971 83 760 231 971 b 710 857 535 971 635 929 l 682 817 b 436 921 615 882 524 921 b 132 463 258 921 132 731 b 133 417 132 447 132 431 b 428 596 167 518 288 596 m 415 33 b 672 294 554 33 672 153 b 418 546 672 431 556 546 b 142 331 286 546 168 450 b 415 33 171 142 269 33 "},"7":{"ha":819,"x_min":0,"x_max":0,"o":"m 654 904 l 82 904 l 82 954 l 714 954 l 714 914 l 285 0 l 229 0 "},"8":{"ha":782,"x_min":0,"x_max":0,"o":"m 390 -17 b 72 246 218 -17 72 103 b 281 492 72 356 158 457 b 97 722 174 528 97 624 b 390 971 97 857 231 971 b 686 722 551 971 686 857 b 501 492 686 622 610 526 b 710 246 624 456 710 354 b 390 -17 710 103 564 -17 m 390 518 b 636 717 535 526 636 608 b 390 921 636 828 524 921 b 147 717 258 921 147 828 b 390 518 147 608 247 526 m 390 33 b 660 249 536 33 660 132 b 390 460 660 368 549 456 b 122 249 233 456 122 368 b 390 33 122 132 244 33 "},"9":{"ha":806,"x_min":0,"x_max":0,"o":"m 390 971 b 722 492 599 971 722 793 b 367 -17 722 194 575 -17 b 96 97 271 -17 171 25 l 124 138 b 369 33 190 72 282 33 b 674 492 547 33 674 224 b 672 538 674 507 674 524 b 378 358 639 436 518 358 b 83 657 218 358 83 494 b 390 971 83 828 224 971 m 388 408 b 664 624 519 408 638 504 b 390 921 635 813 536 921 b 133 660 251 921 133 801 b 388 408 133 524 250 408 "},"A":{"ha":986,"x_min":0,"x_max":0,"o":"m 779 243 l 207 243 l 100 0 l 44 0 l 465 954 l 521 954 l 942 0 l 886 0 m 757 293 l 493 892 l 229 293 "},"Á":{"ha":986,"x_min":0,"x_max":0,"o":"m 526 1036 l 460 1036 l 633 1233 l 690 1221 m 779 243 l 207 243 l 100 0 l 44 0 l 465 954 l 521 954 l 942 0 l 886 0 m 757 293 l 493 892 l 229 293 "},"Ă":{"ha":986,"x_min":0,"x_max":0,"o":"m 696 1138 b 493 1054 640 1082 567 1054 b 290 1138 419 1054 347 1082 l 326 1174 b 493 1106 371 1129 432 1106 b 660 1174 554 1106 615 1129 l 696 1138 m 779 243 l 207 243 l 100 0 l 44 0 l 465 954 l 521 954 l 942 0 l 886 0 m 757 293 l 493 892 l 229 293 "},"Â":{"ha":986,"x_min":0,"x_max":0,"o":"m 376 1036 l 315 1036 l 463 1226 l 524 1226 l 674 1036 l 613 1036 l 493 1183 m 779 243 l 207 243 l 100 0 l 44 0 l 465 954 l 521 954 l 942 0 l 886 0 m 757 293 l 493 892 l 229 293 "},"Ä":{"ha":986,"x_min":0,"x_max":0,"o":"m 360 1088 b 318 1129 336 1088 318 1107 b 360 1171 318 1151 336 1171 b 401 1129 382 1171 401 1151 b 360 1088 401 1107 382 1088 m 626 1088 b 585 1129 603 1088 585 1107 b 626 1171 585 1151 603 1171 b 668 1129 649 1171 668 1151 b 626 1088 668 1107 649 1088 m 779 243 l 207 243 l 100 0 l 44 0 l 465 954 l 521 954 l 942 0 l 886 0 m 757 293 l 493 892 l 229 293 "},"À":{"ha":986,"x_min":0,"x_max":0,"o":"m 463 1036 l 299 1221 l 356 1233 l 529 1036 m 779 243 l 207 243 l 100 0 l 44 0 l 465 954 l 521 954 l 942 0 l 886 0 m 757 293 l 493 892 l 229 293 "},"Ā":{"ha":986,"x_min":0,"x_max":0,"o":"m 708 1074 l 278 1074 l 278 1124 l 708 1124 m 779 243 l 207 243 l 100 0 l 44 0 l 465 954 l 521 954 l 942 0 l 886 0 m 757 293 l 493 892 l 229 293 "},"Ą":{"ha":986,"x_min":0,"x_max":0,"o":"m 1051 -200 b 935 -240 1021 -225 978 -240 b 797 -101 854 -240 797 -183 b 876 21 797 -44 829 1 l 779 243 l 207 243 l 100 0 l 44 0 l 465 954 l 521 954 l 942 0 b 847 -97 882 0 847 -36 b 942 -190 847 -156 882 -190 b 1024 -158 975 -190 1006 -178 m 757 293 l 493 892 l 229 293 "},"Å":{"ha":986,"x_min":0,"x_max":0,"o":"m 493 1054 b 350 1197 415 1054 350 1119 b 493 1340 350 1275 415 1340 b 636 1197 571 1340 636 1275 b 493 1054 636 1119 571 1054 m 493 1293 b 397 1197 442 1293 397 1249 b 493 1101 397 1146 442 1101 b 589 1197 544 1101 589 1146 b 493 1293 589 1249 544 1293 m 779 243 l 207 243 l 100 0 l 44 0 l 465 954 l 521 954 l 942 0 l 886 0 m 757 293 l 493 892 l 229 293 "},"Ã":{"ha":986,"x_min":0,"x_max":0,"o":"m 403 1142 b 326 1032 367 1142 338 1101 l 276 1042 b 403 1192 289 1136 336 1192 b 582 1100 485 1192 525 1100 b 658 1210 618 1100 646 1140 l 708 1200 b 582 1050 696 1106 650 1050 b 403 1142 500 1050 460 1142 m 779 243 l 207 243 l 100 0 l 44 0 l 465 954 l 521 954 l 942 0 l 886 0 m 757 293 l 493 892 l 229 293 "},"Æ":{"ha":1326,"x_min":0,"x_max":0,"o":"m 674 904 l 674 511 l 1207 511 l 1207 461 l 674 461 l 674 50 l 1250 50 l 1250 0 l 624 0 l 624 243 l 243 243 l 103 0 l 44 0 l 596 954 l 1250 954 l 1250 904 m 624 293 l 624 904 l 272 293 "},"B":{"ha":908,"x_min":0,"x_max":0,"o":"m 131 954 l 529 954 b 792 717 683 954 792 856 b 658 497 792 615 736 524 b 829 261 758 465 829 367 b 546 0 829 108 711 0 l 131 0 m 546 522 b 742 717 661 522 742 603 b 529 904 742 826 654 904 l 181 904 l 181 522 m 546 50 b 779 261 682 50 779 138 b 546 472 779 385 682 472 l 181 472 l 181 50 "},"C":{"ha":944,"x_min":0,"x_max":0,"o":"m 561 -17 b 72 478 296 -17 72 210 b 561 971 72 746 296 971 b 904 825 693 971 815 915 l 868 790 b 561 921 789 871 679 921 b 122 478 322 921 122 718 b 561 33 122 236 322 33 b 868 165 679 33 789 83 l 904 129 b 561 -17 815 40 693 -17 "},"Ć":{"ha":944,"x_min":0,"x_max":0,"o":"m 621 1233 l 678 1221 l 514 1036 l 447 1036 m 561 -17 b 72 478 296 -17 72 210 b 561 971 72 746 296 971 b 904 825 693 971 815 915 l 868 790 b 561 921 789 871 679 921 b 122 478 322 921 122 718 b 561 33 122 236 322 33 b 868 165 679 33 789 83 l 904 129 b 561 -17 815 40 693 -17 "},"Č":{"ha":944,"x_min":0,"x_max":0,"o":"m 369 1226 l 431 1226 l 547 1079 l 667 1226 l 728 1226 l 578 1036 l 517 1036 m 561 -17 b 72 478 296 -17 72 210 b 561 971 72 746 296 971 b 904 825 693 971 815 915 l 868 790 b 561 921 789 871 679 921 b 122 478 322 921 122 718 b 561 33 122 236 322 33 b 868 165 679 33 789 83 l 904 129 b 561 -17 815 40 693 -17 "},"Ç":{"ha":944,"x_min":0,"x_max":0,"o":"m 904 129 b 576 -17 819 44 703 -12 l 557 -65 b 576 -62 564 -64 569 -62 b 668 -151 631 -62 668 -100 b 540 -267 668 -214 610 -267 b 428 -228 503 -267 461 -253 l 449 -182 b 540 -217 475 -204 508 -217 b 618 -151 582 -217 618 -185 b 560 -101 618 -122 594 -101 b 513 -117 543 -101 524 -108 l 490 -93 l 524 -15 b 72 478 275 6 72 222 b 561 971 72 746 296 971 b 904 825 693 971 815 915 l 868 790 b 561 921 789 871 679 921 b 122 478 322 921 122 718 b 561 33 122 236 322 33 b 868 165 679 33 789 83 l 904 129 "},"D":{"ha":1035,"x_min":0,"x_max":0,"o":"m 131 954 l 457 954 b 946 478 743 954 946 757 b 457 0 946 199 743 0 l 131 0 m 457 50 b 896 478 714 50 896 228 b 457 904 896 728 714 904 l 181 904 l 181 50 "},"Ð":{"ha":1079,"x_min":0,"x_max":0,"o":"m 501 954 b 990 478 788 954 990 757 b 501 0 990 199 788 0 l 175 0 l 175 461 l 58 461 l 58 511 l 175 511 l 175 954 l 501 954 m 501 50 b 940 478 758 50 940 228 b 501 904 940 728 758 904 l 225 904 l 225 511 l 543 511 l 542 461 l 225 461 l 225 50 l 501 50 "},"Ď":{"ha":1035,"x_min":0,"x_max":0,"o":"m 279 1226 l 340 1226 l 457 1079 l 576 1226 l 638 1226 l 488 1036 l 426 1036 m 131 954 l 457 954 b 946 478 743 954 946 757 b 457 0 946 199 743 0 l 131 0 m 457 50 b 896 478 714 50 896 228 b 457 904 896 728 714 904 l 181 904 l 181 50 "},"Đ":{"ha":1079,"x_min":0,"x_max":0,"o":"m 501 954 b 990 478 788 954 990 757 b 501 0 990 199 788 0 l 175 0 l 175 461 l 58 461 l 58 511 l 175 511 l 175 954 l 501 954 m 501 50 b 940 478 758 50 940 228 b 501 904 940 728 758 904 l 225 904 l 225 511 l 543 511 l 542 461 l 225 461 l 225 50 l 501 50 "},"E":{"ha":813,"x_min":0,"x_max":0,"o":"m 160 904 l 160 511 l 693 511 l 693 461 l 160 461 l 160 50 l 736 50 l 736 0 l 110 0 l 110 954 l 736 954 l 736 904 "},"É":{"ha":813,"x_min":0,"x_max":0,"o":"m 390 1036 l 324 1036 l 497 1233 l 554 1221 m 160 904 l 160 511 l 693 511 l 693 461 l 160 461 l 160 50 l 736 50 l 736 0 l 110 0 l 110 954 l 736 954 l 736 904 "},"Ě":{"ha":813,"x_min":0,"x_max":0,"o":"m 393 1036 l 246 1226 l 307 1226 l 424 1079 l 543 1226 l 604 1226 l 454 1036 m 160 904 l 160 511 l 693 511 l 693 461 l 160 461 l 160 50 l 736 50 l 736 0 l 110 0 l 110 954 l 736 954 l 736 904 "},"Ê":{"ha":813,"x_min":0,"x_max":0,"o":"m 307 1036 l 246 1036 l 393 1226 l 454 1226 l 604 1036 l 543 1036 l 424 1183 m 160 904 l 160 511 l 693 511 l 693 461 l 160 461 l 160 50 l 736 50 l 736 0 l 110 0 l 110 954 l 736 954 l 736 904 "},"Ë":{"ha":813,"x_min":0,"x_max":0,"o":"m 290 1088 b 249 1129 267 1088 249 1107 b 290 1171 249 1151 267 1171 b 332 1129 313 1171 332 1151 b 290 1088 332 1107 313 1088 m 557 1088 b 515 1129 533 1088 515 1107 b 557 1171 515 1151 533 1171 b 599 1129 579 1171 599 1151 b 557 1088 599 1107 579 1088 m 160 904 l 160 511 l 693 511 l 693 461 l 160 461 l 160 50 l 736 50 l 736 0 l 110 0 l 110 954 l 736 954 l 736 904 "},"Ė":{"ha":813,"x_min":0,"x_max":0,"o":"m 424 1088 b 382 1129 400 1088 382 1107 b 424 1171 382 1151 400 1171 b 465 1129 446 1171 465 1151 b 424 1088 465 1107 446 1088 m 160 904 l 160 511 l 693 511 l 693 461 l 160 461 l 160 50 l 736 50 l 736 0 l 110 0 l 110 954 l 736 954 l 736 904 "},"Ẹ":{"ha":813,"x_min":0,"x_max":0,"o":"m 160 904 l 160 511 l 693 511 l 693 461 l 160 461 l 160 50 l 736 50 l 736 0 l 110 0 l 110 954 l 736 954 l 736 904 m 422 -135 b 464 -176 444 -135 464 -154 b 422 -218 464 -199 444 -218 b 381 -176 399 -218 381 -199 b 422 -135 381 -154 399 -135 "},"È":{"ha":813,"x_min":0,"x_max":0,"o":"m 457 1036 l 293 1221 l 350 1233 l 524 1036 m 160 904 l 160 511 l 693 511 l 693 461 l 160 461 l 160 50 l 736 50 l 736 0 l 110 0 l 110 954 l 736 954 l 736 904 "},"Ē":{"ha":813,"x_min":0,"x_max":0,"o":"m 639 1074 l 208 1074 l 208 1124 l 639 1124 m 160 904 l 160 511 l 693 511 l 693 461 l 160 461 l 160 50 l 736 50 l 736 0 l 110 0 l 110 954 l 736 954 l 736 904 "},"Ę":{"ha":813,"x_min":0,"x_max":0,"o":"m 160 904 l 160 511 l 693 511 l 693 461 l 160 461 l 160 50 l 736 50 l 736 0 l 626 0 b 532 -97 567 0 532 -36 b 626 -190 532 -156 567 -190 b 708 -158 660 -190 690 -178 l 736 -200 b 619 -240 706 -225 663 -240 b 482 -101 539 -240 482 -183 b 526 0 482 -60 499 -24 l 110 0 l 110 954 l 736 954 l 736 904 "},"Ẽ":{"ha":813,"x_min":0,"x_max":0,"o":"m 333 1142 b 257 1032 297 1142 268 1101 l 207 1042 b 333 1192 219 1136 267 1192 b 513 1100 415 1192 456 1100 b 589 1210 549 1100 576 1140 l 639 1200 b 513 1050 626 1106 581 1050 b 333 1142 431 1050 390 1142 m 160 904 l 160 511 l 693 511 l 693 461 l 160 461 l 160 50 l 736 50 l 736 0 l 110 0 l 110 954 l 736 954 l 736 904 "},"F":{"ha":815,"x_min":0,"x_max":0,"o":"m 160 904 l 160 511 l 707 511 l 707 461 l 160 461 l 160 0 l 110 0 l 110 954 l 764 954 l 764 904 "},"G":{"ha":1032,"x_min":0,"x_max":0,"o":"m 547 474 l 929 474 l 929 126 b 561 -17 833 39 703 -17 b 72 478 296 -17 72 210 b 561 971 72 746 296 971 b 929 829 703 971 833 917 l 893 793 b 561 921 807 872 689 921 b 122 478 322 921 122 718 b 561 33 122 236 322 33 b 879 147 682 33 793 76 l 879 424 l 547 424 "},"Ğ":{"ha":1032,"x_min":0,"x_max":0,"o":"m 764 1138 b 561 1054 708 1082 635 1054 b 358 1138 488 1054 415 1082 l 394 1174 b 561 1106 439 1129 500 1106 b 728 1174 622 1106 683 1129 l 764 1138 m 547 474 l 929 474 l 929 126 b 561 -17 833 39 703 -17 b 72 478 296 -17 72 210 b 561 971 72 746 296 971 b 929 829 703 971 833 917 l 893 793 b 561 921 807 872 689 921 b 122 478 322 921 122 718 b 561 33 122 236 322 33 b 879 147 682 33 793 76 l 879 424 l 547 424 "},"Ģ":{"ha":1032,"x_min":0,"x_max":0,"o":"m 547 474 l 929 474 l 929 126 b 561 -17 833 39 703 -17 b 72 478 296 -17 72 210 b 561 971 72 746 296 971 b 929 829 703 971 833 917 l 893 793 b 561 921 807 872 689 921 b 122 478 322 921 122 718 b 561 33 122 236 322 33 b 879 147 682 33 793 76 l 879 424 l 547 424 m 558 -135 b 603 -193 585 -135 603 -156 b 522 -372 603 -242 576 -301 l 486 -346 b 558 -218 522 -304 549 -257 b 515 -176 532 -218 515 -200 b 558 -135 515 -153 533 -135 "},"H":{"ha":940,"x_min":0,"x_max":0,"o":"m 831 954 l 831 0 l 781 0 l 781 461 l 160 461 l 160 0 l 110 0 l 110 954 l 160 954 l 160 511 l 781 511 l 781 954 "},"I":{"ha":269,"x_min":0,"x_max":0,"o":"m 110 954 l 160 954 l 160 0 l 110 0 "},"Í":{"ha":269,"x_min":0,"x_max":0,"o":"m 274 1233 l 331 1221 l 167 1036 l 100 1036 m 110 954 l 160 954 l 160 0 l 110 0 "},"Î":{"ha":269,"x_min":0,"x_max":0,"o":"m 104 1226 l 165 1226 l 315 1036 l 254 1036 l 135 1183 l 18 1036 l -43 1036 m 110 954 l 160 954 l 160 0 l 110 0 "},"Ï":{"ha":269,"x_min":0,"x_max":0,"o":"m 1 1088 b -40 1129 -22 1088 -40 1107 b 1 1171 -40 1151 -22 1171 b 43 1129 24 1171 43 1151 b 1 1088 43 1107 24 1088 m 268 1088 b 226 1129 244 1088 226 1107 b 268 1171 226 1151 244 1171 b 310 1129 290 1171 310 1151 b 268 1088 310 1107 290 1088 m 110 954 l 160 954 l 160 0 l 110 0 "},"İ":{"ha":269,"x_min":0,"x_max":0,"o":"m 135 1088 b 93 1129 111 1088 93 1107 b 135 1171 93 1151 111 1171 b 176 1129 157 1171 176 1151 b 135 1088 176 1107 157 1088 m 110 954 l 160 954 l 160 0 l 110 0 "},"Ì":{"ha":269,"x_min":0,"x_max":0,"o":"m -61 1221 l -4 1233 l 169 1036 l 103 1036 m 110 954 l 160 954 l 160 0 l 110 0 "},"Ī":{"ha":269,"x_min":0,"x_max":0,"o":"m -81 1124 l 350 1124 l 350 1074 l -81 1074 m 110 954 l 160 954 l 160 0 l 110 0 "},"Į":{"ha":269,"x_min":0,"x_max":0,"o":"m 269 -200 b 153 -240 239 -225 196 -240 b 15 -101 72 -240 15 -183 b 110 26 15 -39 53 11 l 110 954 l 160 954 l 160 0 b 65 -97 100 0 65 -36 b 160 -190 65 -156 100 -190 b 242 -158 193 -190 224 -178 "},"J":{"ha":721,"x_min":0,"x_max":0,"o":"m 315 -17 b 36 142 201 -17 94 49 l 67 181 b 315 33 121 94 215 33 b 551 297 454 33 551 143 l 551 954 l 601 954 l 601 297 b 315 -17 601 114 483 -17 "},"K":{"ha":850,"x_min":0,"x_max":0,"o":"m 128 954 l 178 954 l 178 357 l 725 954 l 792 954 l 396 522 l 822 0 l 758 0 l 361 485 l 178 285 l 178 0 l 128 0 "},"Ķ":{"ha":850,"x_min":0,"x_max":0,"o":"m 128 954 l 178 954 l 178 357 l 725 954 l 792 954 l 396 522 l 822 0 l 758 0 l 361 485 l 178 285 l 178 0 l 128 0 m 374 -346 b 446 -218 410 -304 436 -257 b 403 -176 419 -218 403 -200 b 446 -135 403 -153 421 -135 b 490 -193 472 -135 490 -156 b 410 -372 490 -242 464 -301 "},"L":{"ha":742,"x_min":0,"x_max":0,"o":"m 694 50 l 694 0 l 94 0 l 94 954 l 144 954 l 144 50 "},"Ĺ":{"ha":742,"x_min":0,"x_max":0,"o":"m 153 1036 l 86 1036 l 260 1233 l 317 1221 m 694 50 l 694 0 l 94 0 l 94 954 l 144 954 l 144 50 "},"Ľ":{"ha":742,"x_min":0,"x_max":0,"o":"m 219 760 b 292 888 256 801 282 849 b 249 929 265 888 249 906 b 292 971 249 953 267 971 b 336 913 318 971 336 950 b 256 733 336 864 310 804 m 694 50 l 694 0 l 94 0 l 94 954 l 144 954 l 144 50 "},"Ł":{"ha":843,"x_min":0,"x_max":0,"o":"m 796 50 l 796 0 l 196 0 l 196 425 l 51 350 l 51 407 l 196 482 l 196 954 l 246 954 l 246 507 l 467 621 l 467 564 l 246 450 l 246 50 "},"M":{"ha":1128,"x_min":0,"x_max":0,"o":"m 131 954 l 181 954 l 564 233 l 947 954 l 997 954 l 997 0 l 947 0 l 947 854 l 564 133 l 181 854 l 181 0 l 131 0 "},"N":{"ha":1011,"x_min":0,"x_max":0,"o":"m 131 954 l 181 954 l 831 78 l 831 954 l 881 954 l 881 0 l 831 0 l 181 876 l 181 0 l 131 0 "},"Ń":{"ha":1011,"x_min":0,"x_max":0,"o":"m 579 1233 l 636 1221 l 472 1036 l 406 1036 m 131 954 l 181 954 l 831 78 l 831 954 l 881 954 l 881 0 l 831 0 l 181 876 l 181 0 l 131 0 "},"Ň":{"ha":1011,"x_min":0,"x_max":0,"o":"m 328 1226 l 389 1226 l 506 1079 l 625 1226 l 686 1226 l 536 1036 l 475 1036 m 131 954 l 181 954 l 831 78 l 831 954 l 881 954 l 881 0 l 831 0 l 181 876 l 181 0 l 131 0 "},"Ņ":{"ha":1011,"x_min":0,"x_max":0,"o":"m 131 954 l 181 954 l 831 78 l 831 954 l 881 954 l 881 0 l 831 0 l 181 876 l 181 0 l 131 0 m 433 -346 b 506 -218 469 -304 496 -257 b 463 -176 479 -218 463 -200 b 506 -135 463 -153 481 -135 b 550 -193 532 -135 550 -156 b 469 -372 550 -242 524 -301 "},"Ñ":{"ha":1011,"x_min":0,"x_max":0,"o":"m 594 1050 b 415 1142 513 1050 472 1142 b 339 1032 379 1142 350 1101 l 289 1042 b 415 1192 301 1136 349 1192 b 594 1100 497 1192 538 1100 b 671 1210 631 1100 658 1140 l 721 1200 b 594 1050 708 1106 663 1050 m 131 954 l 181 954 l 831 78 l 831 954 l 881 954 l 881 0 l 831 0 l 181 876 l 181 0 l 131 0 "},"O":{"ha":1121,"x_min":0,"x_max":0,"o":"m 561 -17 b 72 478 296 -17 72 210 b 561 971 72 746 296 971 b 1049 478 826 971 1049 746 b 561 -17 1049 210 826 -17 m 561 33 b 999 478 799 33 999 236 b 561 921 999 718 799 921 b 122 478 322 921 122 718 b 561 33 122 236 322 33 "},"Ó":{"ha":1121,"x_min":0,"x_max":0,"o":"m 700 1233 l 757 1221 l 593 1036 l 526 1036 m 561 -17 b 72 478 296 -17 72 210 b 561 971 72 746 296 971 b 1049 478 826 971 1049 746 b 561 -17 1049 210 826 -17 m 561 33 b 999 478 799 33 999 236 b 561 921 999 718 799 921 b 122 478 322 921 122 718 b 561 33 122 236 322 33 "},"Ô":{"ha":1121,"x_min":0,"x_max":0,"o":"m 531 1226 l 592 1226 l 742 1036 l 681 1036 l 561 1183 l 444 1036 l 383 1036 m 561 -17 b 72 478 296 -17 72 210 b 561 971 72 746 296 971 b 1049 478 826 971 1049 746 b 561 -17 1049 210 826 -17 m 561 33 b 999 478 799 33 999 236 b 561 921 999 718 799 921 b 122 478 322 921 122 718 b 561 33 122 236 322 33 "},"Ö":{"ha":1121,"x_min":0,"x_max":0,"o":"m 428 1088 b 386 1129 404 1088 386 1107 b 428 1171 386 1151 404 1171 b 469 1129 450 1171 469 1151 b 428 1088 469 1107 450 1088 m 694 1088 b 653 1129 671 1088 653 1107 b 694 1171 653 1151 671 1171 b 736 1129 717 1171 736 1151 b 694 1088 736 1107 717 1088 m 561 -17 b 72 478 296 -17 72 210 b 561 971 72 746 296 971 b 1049 478 826 971 1049 746 b 561 -17 1049 210 826 -17 m 561 33 b 999 478 799 33 999 236 b 561 921 999 718 799 921 b 122 478 322 921 122 718 b 561 33 122 236 322 33 "},"Ò":{"ha":1121,"x_min":0,"x_max":0,"o":"m 368 1221 l 425 1233 l 599 1036 l 532 1036 m 561 -17 b 72 478 296 -17 72 210 b 561 971 72 746 296 971 b 1049 478 826 971 1049 746 b 561 -17 1049 210 826 -17 m 561 33 b 999 478 799 33 999 236 b 561 921 999 718 799 921 b 122 478 322 921 122 718 b 561 33 122 236 322 33 "},"Ő":{"ha":1121,"x_min":0,"x_max":0,"o":"m 578 1233 l 635 1221 l 471 1036 l 404 1036 m 808 1233 l 865 1221 l 701 1036 l 635 1036 m 561 -17 b 72 478 296 -17 72 210 b 561 971 72 746 296 971 b 1049 478 826 971 1049 746 b 561 -17 1049 210 826 -17 m 561 33 b 999 478 799 33 999 236 b 561 921 999 718 799 921 b 122 478 322 921 122 718 b 561 33 122 236 322 33 "},"Ō":{"ha":1121,"x_min":0,"x_max":0,"o":"m 346 1124 l 776 1124 l 776 1074 l 346 1074 m 561 -17 b 72 478 296 -17 72 210 b 561 971 72 746 296 971 b 1049 478 826 971 1049 746 b 561 -17 1049 210 826 -17 m 561 33 b 999 478 799 33 999 236 b 561 921 999 718 799 921 b 122 478 322 921 122 718 b 561 33 122 236 322 33 "},"Ø":{"ha":1121,"x_min":0,"x_max":0,"o":"m 901 828 b 1049 478 992 738 1049 613 b 561 -17 1049 210 826 -17 b 258 93 449 -17 343 25 l 178 0 l 111 0 l 221 126 b 72 478 129 217 72 342 b 561 971 72 746 296 971 b 864 861 675 971 781 929 l 946 954 l 1013 954 l 901 828 m 122 478 b 254 163 122 356 174 244 l 832 824 b 561 921 757 885 663 921 b 122 478 322 921 122 718 m 561 33 b 999 478 799 33 999 236 b 868 790 999 599 949 708 l 292 129 b 561 33 367 69 460 33 "},"Õ":{"ha":1121,"x_min":0,"x_max":0,"o":"m 650 1050 b 471 1142 568 1050 528 1142 b 394 1032 435 1142 406 1101 l 344 1042 b 471 1192 357 1136 404 1192 b 650 1100 553 1192 593 1100 b 726 1210 686 1100 714 1140 l 776 1200 b 650 1050 764 1106 718 1050 m 561 -17 b 72 478 296 -17 72 210 b 561 971 72 746 296 971 b 1049 478 826 971 1049 746 b 561 -17 1049 210 826 -17 m 561 33 b 999 478 799 33 999 236 b 561 921 999 718 799 921 b 122 478 322 921 122 718 b 561 33 122 236 322 33 "},"Œ":{"ha":1375,"x_min":0,"x_max":0,"o":"m 722 904 l 722 511 l 1256 511 l 1256 461 l 722 461 l 722 50 l 1299 50 l 1299 0 l 561 0 b 72 478 296 0 72 210 b 561 954 72 746 296 954 l 1299 954 l 1299 904 m 672 50 l 672 904 l 561 904 b 122 478 322 904 122 718 b 561 50 122 236 322 50 "},"P":{"ha":888,"x_min":0,"x_max":0,"o":"m 110 954 l 511 954 b 842 663 704 954 842 833 b 511 371 842 492 704 371 l 160 371 l 160 0 l 110 0 m 501 421 b 792 663 671 421 792 521 b 501 904 792 804 671 904 l 160 904 l 160 421 "},"Þ":{"ha":888,"x_min":0,"x_max":0,"o":"m 110 954 l 160 954 l 160 772 l 511 772 b 842 481 704 772 842 651 b 511 189 842 310 704 189 l 160 189 l 160 0 l 110 0 m 501 239 b 792 481 671 239 792 339 b 501 722 792 622 671 722 l 160 722 l 160 239 "},"Q":{"ha":1121,"x_min":0,"x_max":0,"o":"m 1049 478 b 904 131 1049 343 993 219 l 1011 38 l 978 0 l 867 96 b 561 -17 783 26 676 -17 b 72 478 296 -17 72 210 b 561 971 72 746 296 971 b 1049 478 826 971 1049 746 m 561 33 b 829 129 661 33 754 69 l 642 292 l 674 329 l 867 163 b 999 478 947 243 999 356 b 561 921 999 718 799 921 b 122 478 322 921 122 718 b 561 33 122 236 322 33 "},"R":{"ha":888,"x_min":0,"x_max":0,"o":"m 842 663 b 547 372 842 503 721 386 l 808 0 l 747 0 l 488 371 l 160 371 l 160 0 l 110 0 l 110 954 l 511 954 b 842 663 704 954 842 833 m 160 421 l 501 421 b 792 663 671 421 792 521 b 501 904 792 804 671 904 l 160 904 "},"Ŕ":{"ha":888,"x_min":0,"x_max":0,"o":"m 419 1036 l 353 1036 l 526 1233 l 583 1221 m 842 663 b 547 372 842 503 721 386 l 808 0 l 747 0 l 488 371 l 160 371 l 160 0 l 110 0 l 110 954 l 511 954 b 842 663 704 954 842 833 m 160 421 l 501 421 b 792 663 671 421 792 521 b 501 904 792 804 671 904 l 160 904 "},"Ř":{"ha":888,"x_min":0,"x_max":0,"o":"m 422 1036 l 275 1226 l 336 1226 l 453 1079 l 572 1226 l 633 1226 l 483 1036 m 842 663 b 547 372 842 503 721 386 l 808 0 l 747 0 l 488 371 l 160 371 l 160 0 l 110 0 l 110 954 l 511 954 b 842 663 704 954 842 833 m 160 421 l 501 421 b 792 663 671 421 792 521 b 501 904 792 804 671 904 l 160 904 "},"Ŗ":{"ha":888,"x_min":0,"x_max":0,"o":"m 842 663 b 547 372 842 503 721 386 l 808 0 l 747 0 l 488 371 l 160 371 l 160 0 l 110 0 l 110 954 l 511 954 b 842 663 704 954 842 833 m 160 421 l 501 421 b 792 663 671 421 792 521 b 501 904 792 804 671 904 l 160 904 m 443 -135 b 488 -193 469 -135 488 -156 b 407 -372 488 -242 461 -301 l 371 -346 b 443 -218 407 -304 433 -257 b 400 -176 417 -218 400 -200 b 443 -135 400 -153 418 -135 "},"S":{"ha":838,"x_min":0,"x_max":0,"o":"m 440 -15 b 64 136 300 -15 161 40 l 94 175 b 442 35 182 88 311 35 b 713 242 600 35 713 121 b 424 461 713 350 631 413 b 111 700 200 513 111 581 b 417 972 111 860 238 972 b 746 836 533 972 653 922 l 715 797 b 414 922 633 876 525 922 b 161 704 265 922 161 832 b 449 507 161 613 243 557 b 763 246 672 454 763 379 b 440 -15 763 93 629 -15 "},"Ś":{"ha":838,"x_min":0,"x_max":0,"o":"m 490 1233 l 547 1221 l 383 1036 l 317 1036 m 440 -15 b 64 136 300 -15 161 40 l 94 175 b 442 35 182 88 311 35 b 713 242 600 35 713 121 b 424 461 713 350 631 413 b 111 700 200 513 111 581 b 417 972 111 860 238 972 b 746 836 533 972 653 922 l 715 797 b 414 922 633 876 525 922 b 161 704 265 922 161 832 b 449 507 161 613 243 557 b 763 246 672 454 763 379 b 440 -15 763 93 629 -15 "},"Š":{"ha":838,"x_min":0,"x_max":0,"o":"m 239 1226 l 300 1226 l 417 1079 l 536 1226 l 597 1226 l 447 1036 l 386 1036 m 440 -15 b 64 136 300 -15 161 40 l 94 175 b 442 35 182 88 311 35 b 713 242 600 35 713 121 b 424 461 713 350 631 413 b 111 700 200 513 111 581 b 417 972 111 860 238 972 b 746 836 533 972 653 922 l 715 797 b 414 922 633 876 525 922 b 161 704 265 922 161 832 b 449 507 161 613 243 557 b 763 246 672 454 763 379 b 440 -15 763 93 629 -15 "},"Ş":{"ha":838,"x_min":0,"x_max":0,"o":"m 763 246 b 457 -15 763 97 638 -8 l 436 -65 b 456 -62 443 -64 449 -62 b 547 -151 510 -62 547 -100 b 419 -267 547 -214 489 -267 b 307 -228 382 -267 340 -253 l 328 -182 b 419 -217 354 -204 388 -217 b 497 -151 461 -217 497 -185 b 439 -101 497 -122 474 -101 b 392 -117 422 -101 403 -108 l 369 -93 l 403 -14 b 64 136 275 -6 153 49 l 94 175 b 442 35 182 88 311 35 b 713 242 600 35 713 121 b 424 461 713 350 631 413 b 111 700 200 513 111 581 b 417 972 111 860 238 972 b 746 836 533 972 653 922 l 715 797 b 414 922 633 876 525 922 b 161 704 265 922 161 832 b 449 507 161 613 243 557 b 763 246 672 454 763 379 "},"T":{"ha":875,"x_min":0,"x_max":0,"o":"m 413 904 l 63 904 l 63 954 l 813 954 l 813 904 l 463 904 l 463 0 l 413 0 "},"Ť":{"ha":875,"x_min":0,"x_max":0,"o":"m 260 1226 l 321 1226 l 438 1079 l 557 1226 l 618 1226 l 468 1036 l 407 1036 m 413 904 l 63 904 l 63 954 l 813 954 l 813 904 l 463 904 l 463 0 l 413 0 "},"Ţ":{"ha":875,"x_min":0,"x_max":0,"o":"m 463 904 l 463 15 l 465 15 l 463 8 l 463 0 l 458 0 l 432 -65 b 451 -62 439 -64 444 -62 b 543 -151 506 -62 543 -100 b 415 -267 543 -214 485 -267 b 303 -228 378 -267 336 -253 l 324 -182 b 415 -217 350 -204 383 -217 b 493 -151 457 -217 493 -185 b 435 -101 493 -122 469 -101 b 388 -117 418 -101 399 -108 l 365 -93 l 411 15 l 413 15 l 413 904 l 63 904 l 63 954 l 813 954 l 813 904 "},"U":{"ha":978,"x_min":0,"x_max":0,"o":"m 489 -17 b 119 368 272 -17 119 143 l 119 954 l 169 954 l 169 368 b 489 33 169 172 301 33 b 808 368 676 33 808 172 l 808 954 l 858 954 l 858 368 b 489 -17 858 143 706 -17 "},"Ú":{"ha":978,"x_min":0,"x_max":0,"o":"m 563 1233 l 619 1221 l 456 1036 l 389 1036 m 489 -17 b 119 368 272 -17 119 143 l 119 954 l 169 954 l 169 368 b 489 33 169 172 301 33 b 808 368 676 33 808 172 l 808 954 l 858 954 l 858 368 b 489 -17 858 143 706 -17 "},"Û":{"ha":978,"x_min":0,"x_max":0,"o":"m 458 1226 l 519 1226 l 669 1036 l 608 1036 l 489 1183 l 372 1036 l 311 1036 m 489 -17 b 119 368 272 -17 119 143 l 119 954 l 169 954 l 169 368 b 489 33 169 172 301 33 b 808 368 676 33 808 172 l 808 954 l 858 954 l 858 368 b 489 -17 858 143 706 -17 "},"Ü":{"ha":978,"x_min":0,"x_max":0,"o":"m 356 1088 b 314 1129 332 1088 314 1107 b 356 1171 314 1151 332 1171 b 397 1129 378 1171 397 1151 b 356 1088 397 1107 378 1088 m 622 1088 b 581 1129 599 1088 581 1107 b 622 1171 581 1151 599 1171 b 664 1129 644 1171 664 1151 b 622 1088 664 1107 644 1088 m 489 -17 b 119 368 272 -17 119 143 l 119 954 l 169 954 l 169 368 b 489 33 169 172 301 33 b 808 368 676 33 808 172 l 808 954 l 858 954 l 858 368 b 489 -17 858 143 706 -17 "},"Ù":{"ha":978,"x_min":0,"x_max":0,"o":"m 358 1221 l 415 1233 l 589 1036 l 522 1036 m 489 -17 b 119 368 272 -17 119 143 l 119 954 l 169 954 l 169 368 b 489 33 169 172 301 33 b 808 368 676 33 808 172 l 808 954 l 858 954 l 858 368 b 489 -17 858 143 706 -17 "},"Ű":{"ha":978,"x_min":0,"x_max":0,"o":"m 488 1233 l 544 1221 l 381 1036 l 314 1036 m 718 1233 l 775 1221 l 611 1036 l 544 1036 m 489 -17 b 119 368 272 -17 119 143 l 119 954 l 169 954 l 169 368 b 489 33 169 172 301 33 b 808 368 676 33 808 172 l 808 954 l 858 954 l 858 368 b 489 -17 858 143 706 -17 "},"Ū":{"ha":978,"x_min":0,"x_max":0,"o":"m 274 1124 l 704 1124 l 704 1074 l 274 1074 m 489 -17 b 119 368 272 -17 119 143 l 119 954 l 169 954 l 169 368 b 489 33 169 172 301 33 b 808 368 676 33 808 172 l 808 954 l 858 954 l 858 368 b 489 -17 858 143 706 -17 "},"Ų":{"ha":978,"x_min":0,"x_max":0,"o":"m 858 954 l 858 368 b 489 -17 858 143 706 -17 b 450 -15 476 -17 463 -17 b 413 -97 426 -31 413 -60 b 507 -190 413 -156 447 -190 b 589 -158 540 -190 571 -178 l 617 -200 b 500 -240 586 -225 543 -240 b 363 -101 419 -240 363 -183 b 400 -7 363 -64 376 -31 b 119 368 232 31 119 175 l 119 954 l 169 954 l 169 368 b 489 33 169 172 301 33 b 808 368 676 33 808 172 l 808 954 "},"Ů":{"ha":978,"x_min":0,"x_max":0,"o":"m 489 1054 b 346 1197 411 1054 346 1119 b 489 1340 346 1275 411 1340 b 632 1197 567 1340 632 1275 b 489 1054 632 1119 567 1054 m 489 1101 b 585 1197 540 1101 585 1146 b 489 1293 585 1249 540 1293 b 393 1197 438 1293 393 1249 b 489 1101 393 1146 438 1101 m 489 -17 b 119 368 272 -17 119 143 l 119 954 l 169 954 l 169 368 b 489 33 169 172 301 33 b 808 368 676 33 808 172 l 808 954 l 858 954 l 858 368 b 489 -17 858 143 706 -17 "},"V":{"ha":986,"x_min":0,"x_max":0,"o":"m 942 954 l 521 0 l 465 0 l 44 954 l 100 954 l 493 63 l 886 954 "},"W":{"ha":1435,"x_min":0,"x_max":0,"o":"m 51 954 l 106 954 l 399 81 l 690 954 l 744 954 l 1038 81 l 1329 954 l 1383 954 l 1064 0 l 1010 0 l 718 874 l 425 0 l 371 0 "},"Ẃ":{"ha":1435,"x_min":0,"x_max":0,"o":"m 857 1233 l 914 1221 l 750 1036 l 683 1036 m 51 954 l 106 954 l 399 81 l 690 954 l 744 954 l 1038 81 l 1329 954 l 1383 954 l 1064 0 l 1010 0 l 718 874 l 425 0 l 371 0 "},"Ŵ":{"ha":1435,"x_min":0,"x_max":0,"o":"m 688 1226 l 749 1226 l 899 1036 l 838 1036 l 718 1183 l 601 1036 l 540 1036 m 51 954 l 106 954 l 399 81 l 690 954 l 744 954 l 1038 81 l 1329 954 l 1383 954 l 1064 0 l 1010 0 l 718 874 l 425 0 l 371 0 "},"Ẅ":{"ha":1435,"x_min":0,"x_max":0,"o":"m 585 1088 b 543 1129 561 1088 543 1107 b 585 1171 543 1151 561 1171 b 626 1129 607 1171 626 1151 b 585 1088 626 1107 607 1088 m 851 1088 b 810 1129 828 1088 810 1107 b 851 1171 810 1151 828 1171 b 893 1129 874 1171 893 1151 b 851 1088 893 1107 874 1088 m 51 954 l 106 954 l 399 81 l 690 954 l 744 954 l 1038 81 l 1329 954 l 1383 954 l 1064 0 l 1010 0 l 718 874 l 425 0 l 371 0 "},"Ẁ":{"ha":1435,"x_min":0,"x_max":0,"o":"m 522 1221 l 579 1233 l 753 1036 l 686 1036 m 51 954 l 106 954 l 399 81 l 690 954 l 744 954 l 1038 81 l 1329 954 l 1383 954 l 1064 0 l 1010 0 l 718 874 l 425 0 l 371 0 "},"X":{"ha":900,"x_min":0,"x_max":0,"o":"m 482 476 l 846 0 l 782 0 l 450 435 l 117 0 l 53 0 l 418 476 l 53 954 l 117 954 l 450 518 l 783 954 l 847 954 "},"Y":{"ha":878,"x_min":0,"x_max":0,"o":"m 414 388 l 25 954 l 89 954 l 439 444 l 789 954 l 853 954 l 464 388 l 464 0 l 414 0 "},"Ý":{"ha":878,"x_min":0,"x_max":0,"o":"m 513 1233 l 569 1221 l 406 1036 l 339 1036 m 414 388 l 25 954 l 89 954 l 439 444 l 789 954 l 853 954 l 464 388 l 464 0 l 414 0 "},"Ŷ":{"ha":878,"x_min":0,"x_max":0,"o":"m 408 1226 l 469 1226 l 619 1036 l 558 1036 l 439 1183 l 322 1036 l 261 1036 m 414 388 l 25 954 l 89 954 l 439 444 l 789 954 l 853 954 l 464 388 l 464 0 l 414 0 "},"Ÿ":{"ha":878,"x_min":0,"x_max":0,"o":"m 306 1088 b 264 1129 282 1088 264 1107 b 306 1171 264 1151 282 1171 b 347 1129 328 1171 347 1151 b 306 1088 347 1107 328 1088 m 572 1088 b 531 1129 549 1088 531 1107 b 572 1171 531 1151 549 1171 b 614 1129 594 1171 614 1151 b 572 1088 614 1107 594 1088 m 414 388 l 25 954 l 89 954 l 439 444 l 789 954 l 853 954 l 464 388 l 464 0 l 414 0 "},"Ỳ":{"ha":878,"x_min":0,"x_max":0,"o":"m 300 1221 l 357 1233 l 531 1036 l 464 1036 m 414 388 l 25 954 l 89 954 l 439 444 l 789 954 l 853 954 l 464 388 l 464 0 l 414 0 "},"Z":{"ha":860,"x_min":0,"x_max":0,"o":"m 81 42 l 715 904 l 90 904 l 90 954 l 776 954 l 776 913 l 142 50 l 782 50 l 782 0 l 81 0 "},"Ź":{"ha":860,"x_min":0,"x_max":0,"o":"m 506 1233 l 563 1221 l 399 1036 l 332 1036 m 81 42 l 715 904 l 90 904 l 90 954 l 776 954 l 776 913 l 142 50 l 782 50 l 782 0 l 81 0 "},"Ž":{"ha":860,"x_min":0,"x_max":0,"o":"m 254 1226 l 315 1226 l 432 1079 l 551 1226 l 613 1226 l 463 1036 l 401 1036 m 81 42 l 715 904 l 90 904 l 90 954 l 776 954 l 776 913 l 142 50 l 782 50 l 782 0 l 81 0 "},"Ż":{"ha":860,"x_min":0,"x_max":0,"o":"m 432 1088 b 390 1129 408 1088 390 1107 b 432 1171 390 1151 408 1171 b 474 1129 454 1171 474 1151 b 432 1088 474 1107 454 1088 m 81 42 l 715 904 l 90 904 l 90 954 l 776 954 l 776 913 l 142 50 l 782 50 l 782 0 l 81 0 "},"a":{"ha":769,"x_min":0,"x_max":0,"o":"m 386 735 b 663 438 558 735 663 611 l 663 0 l 613 0 l 613 117 b 328 -17 557 31 432 -17 b 69 214 179 -17 69 78 b 358 451 69 353 185 451 b 613 401 438 451 532 431 l 613 438 b 379 685 613 558 550 685 b 160 622 307 685 226 663 l 139 665 b 386 735 218 711 311 735 m 333 33 b 613 225 443 33 585 96 l 613 351 b 364 401 539 376 447 401 b 119 215 218 401 119 324 b 333 33 119 108 214 33 "},"á":{"ha":769,"x_min":0,"x_max":0,"o":"m 368 800 l 301 800 l 475 997 l 532 985 m 386 735 b 663 438 558 735 663 611 l 663 0 l 613 0 l 613 117 b 328 -17 557 31 432 -17 b 69 214 179 -17 69 78 b 358 451 69 353 185 451 b 613 401 438 451 532 431 l 613 438 b 379 685 613 558 550 685 b 160 622 307 685 226 663 l 139 665 b 386 735 218 711 311 735 m 333 33 b 613 225 443 33 585 96 l 613 351 b 364 401 539 376 447 401 b 119 215 218 401 119 324 b 333 33 119 108 214 33 "},"ă":{"ha":769,"x_min":0,"x_max":0,"o":"m 604 901 b 401 818 549 846 475 818 b 199 901 328 818 256 846 l 235 938 b 401 869 279 893 340 869 b 568 938 463 869 524 893 l 604 901 m 386 735 b 663 438 558 735 663 611 l 663 0 l 613 0 l 613 117 b 328 -17 557 31 432 -17 b 69 214 179 -17 69 78 b 358 451 69 353 185 451 b 613 401 438 451 532 431 l 613 438 b 379 685 613 558 550 685 b 160 622 307 685 226 663 l 139 665 b 386 735 218 711 311 735 m 333 33 b 613 225 443 33 585 96 l 613 351 b 364 401 539 376 447 401 b 119 215 218 401 119 324 b 333 33 119 108 214 33 "},"â":{"ha":769,"x_min":0,"x_max":0,"o":"m 285 800 l 224 800 l 371 990 l 432 990 l 582 800 l 521 800 l 401 947 m 386 735 b 663 438 558 735 663 611 l 663 0 l 613 0 l 613 117 b 328 -17 557 31 432 -17 b 69 214 179 -17 69 78 b 358 451 69 353 185 451 b 613 401 438 451 532 431 l 613 438 b 379 685 613 558 550 685 b 160 622 307 685 226 663 l 139 665 b 386 735 218 711 311 735 m 333 33 b 613 225 443 33 585 96 l 613 351 b 364 401 539 376 447 401 b 119 215 218 401 119 324 b 333 33 119 108 214 33 "},"ä":{"ha":769,"x_min":0,"x_max":0,"o":"m 268 851 b 226 893 244 851 226 871 b 268 935 226 915 244 935 b 310 893 290 935 310 915 b 268 851 310 871 290 851 m 535 851 b 493 893 511 851 493 871 b 535 935 493 915 511 935 b 576 893 557 935 576 915 b 535 851 576 871 557 851 m 386 735 b 663 438 558 735 663 611 l 663 0 l 613 0 l 613 117 b 328 -17 557 31 432 -17 b 69 214 179 -17 69 78 b 358 451 69 353 185 451 b 613 401 438 451 532 431 l 613 438 b 379 685 613 558 550 685 b 160 622 307 685 226 663 l 139 665 b 386 735 218 711 311 735 m 333 33 b 613 225 443 33 585 96 l 613 351 b 364 401 539 376 447 401 b 119 215 218 401 119 324 b 333 33 119 108 214 33 "},"à":{"ha":769,"x_min":0,"x_max":0,"o":"m 435 800 l 271 985 l 328 997 l 501 800 m 386 735 b 663 438 558 735 663 611 l 663 0 l 613 0 l 613 117 b 328 -17 557 31 432 -17 b 69 214 179 -17 69 78 b 358 451 69 353 185 451 b 613 401 438 451 532 431 l 613 438 b 379 685 613 558 550 685 b 160 622 307 685 226 663 l 139 665 b 386 735 218 711 311 735 m 333 33 b 613 225 443 33 585 96 l 613 351 b 364 401 539 376 447 401 b 119 215 218 401 119 324 b 333 33 119 108 214 33 "},"ā":{"ha":769,"x_min":0,"x_max":0,"o":"m 617 838 l 186 838 l 186 888 l 617 888 m 386 735 b 663 438 558 735 663 611 l 663 0 l 613 0 l 613 117 b 328 -17 557 31 432 -17 b 69 214 179 -17 69 78 b 358 451 69 353 185 451 b 613 401 438 451 532 431 l 613 438 b 379 685 613 558 550 685 b 160 622 307 685 226 663 l 139 665 b 386 735 218 711 311 735 m 333 33 b 613 225 443 33 585 96 l 613 351 b 364 401 539 376 447 401 b 119 215 218 401 119 324 b 333 33 119 108 214 33 "},"ą":{"ha":769,"x_min":0,"x_max":0,"o":"m 772 -200 b 656 -240 742 -225 699 -240 b 518 -101 575 -240 518 -183 b 613 26 518 -39 556 11 l 613 117 b 328 -17 557 31 432 -17 b 69 214 179 -17 69 78 b 358 451 69 353 185 451 b 613 401 438 451 532 431 l 613 438 b 379 685 613 558 550 685 b 160 622 307 685 226 663 l 139 665 b 386 735 218 711 311 735 b 663 438 558 735 663 611 l 663 0 b 568 -97 603 0 568 -36 b 663 -190 568 -156 603 -190 b 744 -158 696 -190 726 -178 m 333 33 b 613 225 443 33 585 96 l 613 351 b 364 401 539 376 447 401 b 119 215 218 401 119 324 b 333 33 119 108 214 33 "},"å":{"ha":769,"x_min":0,"x_max":0,"o":"m 401 818 b 258 961 324 818 258 883 b 401 1104 258 1039 324 1104 b 544 961 479 1104 544 1039 b 401 818 544 883 479 818 m 401 1057 b 306 961 350 1057 306 1013 b 401 865 306 910 350 865 b 497 961 453 865 497 910 b 401 1057 497 1013 453 1057 m 386 735 b 663 438 558 735 663 611 l 663 0 l 613 0 l 613 117 b 328 -17 557 31 432 -17 b 69 214 179 -17 69 78 b 358 451 69 353 185 451 b 613 401 438 451 532 431 l 613 438 b 379 685 613 558 550 685 b 160 622 307 685 226 663 l 139 665 b 386 735 218 711 311 735 m 333 33 b 613 225 443 33 585 96 l 613 351 b 364 401 539 376 447 401 b 119 215 218 401 119 324 b 333 33 119 108 214 33 "},"ã":{"ha":769,"x_min":0,"x_max":0,"o":"m 311 906 b 235 796 275 906 246 865 l 185 806 b 311 956 197 900 244 956 b 490 864 393 956 433 864 b 567 974 526 864 554 904 l 617 964 b 490 814 604 869 558 814 b 311 906 408 814 368 906 m 386 735 b 663 438 558 735 663 611 l 663 0 l 613 0 l 613 117 b 328 -17 557 31 432 -17 b 69 214 179 -17 69 78 b 358 451 69 353 185 451 b 613 401 438 451 532 431 l 613 438 b 379 685 613 558 550 685 b 160 622 307 685 226 663 l 139 665 b 386 735 218 711 311 735 m 333 33 b 613 225 443 33 585 96 l 613 351 b 364 401 539 376 447 401 b 119 215 218 401 119 324 b 333 33 119 108 214 33 "},"æ":{"ha":1372,"x_min":0,"x_max":0,"o":"m 965 33 b 1231 132 1068 33 1171 67 l 1265 94 b 965 -17 1206 29 1081 -17 b 649 199 828 -17 706 72 b 342 -17 608 68 493 -17 b 69 214 182 -17 69 79 b 358 451 69 353 185 451 b 613 401 438 451 532 431 l 613 438 b 379 685 613 558 550 685 b 160 622 307 685 226 663 l 139 665 b 386 735 218 711 311 735 b 651 533 525 735 619 654 b 965 735 708 654 826 735 b 1307 336 1171 735 1307 575 l 664 336 b 965 33 675 169 810 33 m 965 685 b 664 386 804 685 675 554 l 1257 386 b 965 685 1249 565 1135 685 m 347 33 b 613 300 503 33 613 144 l 613 351 b 364 401 539 376 447 401 b 119 215 218 401 119 324 b 347 33 119 108 214 33 "},"b":{"ha":846,"x_min":0,"x_max":0,"o":"m 449 735 b 771 360 624 735 771 564 b 449 -17 771 156 624 -17 b 165 150 324 -17 222 47 l 165 0 l 115 0 l 115 971 l 165 971 l 165 568 b 449 735 222 671 324 735 m 439 33 b 721 360 592 33 721 182 b 439 685 721 536 592 685 b 165 360 279 685 165 550 b 439 33 165 168 279 33 "},"c":{"ha":725,"x_min":0,"x_max":0,"o":"m 425 -17 b 67 360 215 -17 67 139 b 425 735 67 579 215 735 b 671 629 519 735 607 694 l 635 594 b 425 685 581 650 506 685 b 117 360 244 685 117 550 b 425 33 117 168 244 33 b 636 124 506 33 581 68 l 671 89 b 425 -17 607 24 519 -17 "},"ć":{"ha":725,"x_min":0,"x_max":0,"o":"m 474 997 l 531 985 l 367 800 l 300 800 m 425 -17 b 67 360 215 -17 67 139 b 425 735 67 579 215 735 b 671 629 519 735 607 694 l 635 594 b 425 685 581 650 506 685 b 117 360 244 685 117 550 b 425 33 117 168 244 33 b 636 124 506 33 581 68 l 671 89 b 425 -17 607 24 519 -17 "},"č":{"ha":725,"x_min":0,"x_max":0,"o":"m 222 990 l 283 990 l 400 843 l 519 990 l 581 990 l 431 800 l 369 800 m 425 -17 b 67 360 215 -17 67 139 b 425 735 67 579 215 735 b 671 629 519 735 607 694 l 635 594 b 425 685 581 650 506 685 b 117 360 244 685 117 550 b 425 33 117 168 244 33 b 636 124 506 33 581 68 l 671 89 b 425 -17 607 24 519 -17 "},"ç":{"ha":725,"x_min":0,"x_max":0,"o":"m 425 33 b 636 124 506 33 581 68 l 671 89 b 440 -17 611 28 529 -12 l 421 -65 b 440 -62 428 -64 433 -62 b 532 -151 494 -62 532 -100 b 404 -267 532 -214 474 -267 b 292 -228 367 -267 325 -253 l 313 -182 b 404 -217 339 -204 372 -217 b 482 -151 446 -217 482 -185 b 424 -101 482 -122 458 -101 b 376 -117 407 -101 388 -108 l 354 -93 l 388 -15 b 67 360 197 3 67 153 b 425 735 67 579 215 735 b 671 629 519 735 607 694 l 635 594 b 425 685 581 650 506 685 b 117 360 244 685 117 550 b 425 33 117 168 244 33 "},"d":{"ha":846,"x_min":0,"x_max":0,"o":"m 731 971 l 731 0 l 681 0 l 681 150 b 397 -17 624 47 522 -17 b 75 360 222 -17 75 156 b 397 735 75 564 222 735 b 681 568 522 735 624 671 l 681 971 m 407 33 b 681 360 567 33 681 168 b 407 685 681 550 567 685 b 125 360 254 685 125 536 b 407 33 125 182 254 33 "},"ð":{"ha":849,"x_min":0,"x_max":0,"o":"m 501 857 b 765 354 653 719 765 542 b 425 -17 765 138 625 -17 b 83 342 225 -17 83 132 b 425 699 83 551 225 699 b 672 575 515 699 606 665 b 454 836 622 669 544 758 l 278 757 l 257 803 l 410 871 b 274 967 367 906 321 938 l 319 990 b 460 893 368 963 415 929 l 590 951 l 611 906 l 501 857 m 424 33 b 715 346 594 33 715 163 b 425 649 715 524 600 649 b 133 340 254 649 133 521 b 424 33 133 161 254 33 "},"ď":{"ha":846,"x_min":0,"x_max":0,"o":"m 681 971 l 731 971 l 731 0 l 681 0 l 681 150 b 397 -17 624 47 522 -17 b 75 360 222 -17 75 156 b 397 735 75 564 222 735 b 681 568 522 735 624 671 m 876 971 b 921 913 903 971 921 950 b 840 733 921 864 894 804 l 804 760 b 876 888 840 801 867 849 b 833 929 850 888 833 906 b 876 971 833 953 851 971 m 407 33 b 681 360 567 33 681 168 b 407 685 681 550 567 685 b 125 360 254 685 125 536 b 407 33 125 182 254 33 "},"đ":{"ha":871,"x_min":0,"x_max":0,"o":"m 819 822 l 731 822 l 731 0 l 681 0 l 681 150 b 397 -17 624 47 522 -17 b 75 360 222 -17 75 156 b 397 735 75 564 222 735 b 681 568 522 735 624 671 l 681 822 l 417 822 l 417 872 l 681 872 l 681 971 l 731 971 l 731 872 l 819 872 m 407 33 b 681 360 567 33 681 168 b 407 685 681 550 567 685 b 125 360 254 685 125 536 b 407 33 125 182 254 33 "},"e":{"ha":826,"x_min":0,"x_max":0,"o":"m 419 33 b 685 132 522 33 625 67 l 719 94 b 419 -17 660 29 535 -17 b 67 361 228 -17 67 156 b 419 735 67 571 222 735 b 761 336 625 735 761 575 l 118 336 b 419 33 129 169 264 33 m 419 685 b 118 386 258 685 129 554 l 711 386 b 419 685 703 565 589 685 "},"é":{"ha":826,"x_min":0,"x_max":0,"o":"m 386 800 l 319 800 l 493 997 l 550 985 m 419 33 b 685 132 522 33 625 67 l 719 94 b 419 -17 660 29 535 -17 b 67 361 228 -17 67 156 b 419 735 67 571 222 735 b 761 336 625 735 761 575 l 118 336 b 419 33 129 169 264 33 m 419 685 b 118 386 258 685 129 554 l 711 386 b 419 685 703 565 589 685 "},"ě":{"ha":826,"x_min":0,"x_max":0,"o":"m 389 800 l 242 990 l 303 990 l 419 843 l 539 990 l 600 990 l 450 800 m 419 33 b 685 132 522 33 625 67 l 719 94 b 419 -17 660 29 535 -17 b 67 361 228 -17 67 156 b 419 735 67 571 222 735 b 761 336 625 735 761 575 l 118 336 b 419 33 129 169 264 33 m 419 685 b 118 386 258 685 129 554 l 711 386 b 419 685 703 565 589 685 "},"ê":{"ha":826,"x_min":0,"x_max":0,"o":"m 303 800 l 242 800 l 389 990 l 450 990 l 600 800 l 539 800 l 419 947 m 419 33 b 685 132 522 33 625 67 l 719 94 b 419 -17 660 29 535 -17 b 67 361 228 -17 67 156 b 419 735 67 571 222 735 b 761 336 625 735 761 575 l 118 336 b 419 33 129 169 264 33 m 419 685 b 118 386 258 685 129 554 l 711 386 b 419 685 703 565 589 685 "},"ë":{"ha":826,"x_min":0,"x_max":0,"o":"m 286 851 b 244 893 263 851 244 871 b 286 935 244 915 263 935 b 328 893 308 935 328 915 b 286 851 328 871 308 851 m 553 851 b 511 893 529 851 511 871 b 553 935 511 915 529 935 b 594 893 575 935 594 915 b 553 851 594 871 575 851 m 419 33 b 685 132 522 33 625 67 l 719 94 b 419 -17 660 29 535 -17 b 67 361 228 -17 67 156 b 419 735 67 571 222 735 b 761 336 625 735 761 575 l 118 336 b 419 33 129 169 264 33 m 419 685 b 118 386 258 685 129 554 l 711 386 b 419 685 703 565 589 685 "},"ė":{"ha":826,"x_min":0,"x_max":0,"o":"m 419 851 b 378 893 396 851 378 871 b 419 935 378 915 396 935 b 461 893 442 935 461 915 b 419 851 461 871 442 851 m 419 33 b 685 132 522 33 625 67 l 719 94 b 419 -17 660 29 535 -17 b 67 361 228 -17 67 156 b 419 735 67 571 222 735 b 761 336 625 735 761 575 l 118 336 b 419 33 129 169 264 33 m 419 685 b 118 386 258 685 129 554 l 711 386 b 419 685 703 565 589 685 "},"ẹ":{"ha":826,"x_min":0,"x_max":0,"o":"m 419 33 b 685 132 522 33 625 67 l 719 94 b 419 -17 660 29 535 -17 b 67 361 228 -17 67 156 b 419 735 67 571 222 735 b 761 336 625 735 761 575 l 118 336 b 419 33 129 169 264 33 m 419 685 b 118 386 258 685 129 554 l 711 386 b 419 685 703 565 589 685 m 417 -135 b 458 -176 439 -135 458 -154 b 417 -218 458 -199 439 -218 b 375 -176 393 -218 375 -199 b 417 -135 375 -154 393 -135 "},"è":{"ha":826,"x_min":0,"x_max":0,"o":"m 453 800 l 289 985 l 346 997 l 519 800 m 419 33 b 685 132 522 33 625 67 l 719 94 b 419 -17 660 29 535 -17 b 67 361 228 -17 67 156 b 419 735 67 571 222 735 b 761 336 625 735 761 575 l 118 336 b 419 33 129 169 264 33 m 419 685 b 118 386 258 685 129 554 l 711 386 b 419 685 703 565 589 685 "},"ē":{"ha":826,"x_min":0,"x_max":0,"o":"m 635 838 l 204 838 l 204 888 l 635 888 m 419 33 b 685 132 522 33 625 67 l 719 94 b 419 -17 660 29 535 -17 b 67 361 228 -17 67 156 b 419 735 67 571 222 735 b 761 336 625 735 761 575 l 118 336 b 419 33 129 169 264 33 m 419 685 b 118 386 258 685 129 554 l 711 386 b 419 685 703 565 589 685 "},"ę":{"ha":826,"x_min":0,"x_max":0,"o":"m 543 0 b 515 -75 525 -17 515 -43 b 610 -168 515 -133 550 -168 b 692 -136 643 -168 674 -156 l 719 -178 b 603 -218 689 -203 646 -218 b 465 -79 522 -218 465 -161 b 482 -12 465 -54 471 -32 b 419 -17 461 -15 440 -17 b 67 361 228 -17 67 156 b 419 735 67 571 222 735 b 761 336 625 735 761 575 l 118 336 b 419 33 129 169 264 33 b 685 132 522 33 625 67 l 719 94 b 543 0 681 53 615 18 m 419 685 b 118 386 258 685 129 554 l 711 386 b 419 685 703 565 589 685 "},"ẽ":{"ha":826,"x_min":0,"x_max":0,"o":"m 329 906 b 253 796 293 906 264 865 l 203 806 b 329 956 215 900 263 956 b 508 864 411 956 451 864 b 585 974 544 864 572 904 l 635 964 b 508 814 622 869 576 814 b 329 906 426 814 386 906 m 419 33 b 685 132 522 33 625 67 l 719 94 b 419 -17 660 29 535 -17 b 67 361 228 -17 67 156 b 419 735 67 571 222 735 b 761 336 625 735 761 575 l 118 336 b 419 33 129 169 264 33 m 419 685 b 118 386 258 685 129 554 l 711 386 b 419 685 703 565 589 685 "},"f":{"ha":474,"x_min":0,"x_max":0,"o":"m 328 950 b 228 817 269 950 228 894 l 228 718 l 429 718 l 429 668 l 228 668 l 228 0 l 178 0 l 178 668 l 51 668 l 51 718 l 178 718 l 178 817 b 325 1000 178 924 239 1000 b 458 954 375 1000 419 985 l 431 915 b 328 950 403 939 369 950 "},"g":{"ha":829,"x_min":0,"x_max":0,"o":"m 714 718 l 714 76 b 388 -239 714 -108 579 -239 b 97 -143 283 -239 163 -199 l 122 -99 b 383 -189 185 -151 293 -189 b 664 76 547 -189 664 -79 l 664 240 b 364 53 611 118 496 53 b 50 394 193 53 50 208 b 364 735 50 579 193 735 b 664 549 500 735 613 671 l 664 718 m 374 103 b 664 394 538 103 664 224 b 374 685 664 564 538 685 b 100 394 225 685 100 551 b 374 103 100 236 225 103 "},"ğ":{"ha":829,"x_min":0,"x_max":0,"o":"m 600 901 b 397 818 544 846 471 818 b 194 901 324 818 251 846 l 231 938 b 397 869 275 893 336 869 b 564 938 458 869 519 893 l 600 901 m 714 718 l 714 76 b 388 -239 714 -108 579 -239 b 97 -143 283 -239 163 -199 l 122 -99 b 383 -189 185 -151 293 -189 b 664 76 547 -189 664 -79 l 664 240 b 364 53 611 118 496 53 b 50 394 193 53 50 208 b 364 735 50 579 193 735 b 664 549 500 735 613 671 l 664 718 m 374 103 b 664 394 538 103 664 224 b 374 685 664 564 538 685 b 100 394 225 685 100 551 b 374 103 100 236 225 103 "},"ģ":{"ha":829,"x_min":0,"x_max":0,"o":"m 396 851 b 351 910 369 851 351 872 b 432 1089 351 958 378 1018 l 468 1063 b 396 935 432 1021 406 974 b 439 893 422 935 439 917 b 396 851 439 869 421 851 m 714 718 l 714 76 b 388 -239 714 -108 579 -239 b 97 -143 283 -239 163 -199 l 122 -99 b 383 -189 185 -151 293 -189 b 664 76 547 -189 664 -79 l 664 240 b 364 53 611 118 496 53 b 50 394 193 53 50 208 b 364 735 50 579 193 735 b 664 549 500 735 613 671 l 664 718 m 374 103 b 664 394 538 103 664 224 b 374 685 664 564 538 685 b 100 394 225 685 100 551 b 374 103 100 236 225 103 "},"h":{"ha":767,"x_min":0,"x_max":0,"o":"m 393 735 b 661 471 550 735 661 625 l 661 0 l 611 0 l 611 464 b 386 685 611 593 518 685 b 157 458 251 685 157 590 l 157 0 l 107 0 l 107 971 l 157 971 l 157 593 b 393 735 193 679 281 735 "},"i":{"ha":258,"x_min":0,"x_max":0,"o":"m 129 876 b 88 918 106 876 88 894 b 129 960 88 940 106 960 b 171 918 151 960 171 940 b 129 876 171 894 151 876 m 104 718 l 154 718 l 154 0 l 104 0 "},"ı":{"ha":258,"x_min":0,"x_max":0,"o":"m 104 718 l 154 718 l 154 0 l 104 0 "},"í":{"ha":258,"x_min":0,"x_max":0,"o":"m 267 997 l 324 985 l 160 800 l 93 800 m 104 718 l 154 718 l 154 0 l 104 0 "},"î":{"ha":258,"x_min":0,"x_max":0,"o":"m 99 990 l 160 990 l 310 800 l 249 800 l 129 947 l 13 800 l -49 800 m 104 718 l 154 718 l 154 0 l 104 0 "},"ï":{"ha":258,"x_min":0,"x_max":0,"o":"m -4 851 b -46 893 -28 851 -46 871 b -4 935 -46 915 -28 935 b 38 893 18 935 38 915 b -4 851 38 871 18 851 m 263 851 b 221 893 239 851 221 871 b 263 935 221 915 239 935 b 304 893 285 935 304 915 b 263 851 304 871 285 851 m 104 718 l 154 718 l 154 0 l 104 0 "},"ì":{"ha":258,"x_min":0,"x_max":0,"o":"m -67 985 l -10 997 l 164 800 l 97 800 m 104 718 l 154 718 l 154 0 l 104 0 "},"ī":{"ha":258,"x_min":0,"x_max":0,"o":"m -86 888 l 344 888 l 344 838 l -86 838 m 104 718 l 154 718 l 154 0 l 104 0 "},"į":{"ha":258,"x_min":0,"x_max":0,"o":"m 129 851 b 88 893 106 851 88 871 b 129 935 88 915 106 935 b 171 893 151 935 171 915 b 129 851 171 871 151 851 m 239 -200 b 122 -240 208 -225 165 -240 b -15 -101 42 -240 -15 -183 b 96 29 -15 -33 31 21 l 104 22 l 104 718 l 154 718 l 154 0 l 129 0 b 35 -97 69 0 35 -36 b 129 -190 35 -156 69 -190 b 211 -158 163 -190 193 -178 "},"j":{"ha":224,"x_min":0,"x_max":0,"o":"m 113 876 b 71 918 89 876 71 894 b 113 960 71 940 89 960 b 154 918 135 960 154 940 b 113 876 154 894 135 876 m -12 -247 b -125 -225 -50 -247 -96 -237 l -115 -178 b -15 -197 -90 -189 -49 -197 b 86 -78 44 -197 86 -147 l 86 718 l 136 718 l 136 -78 b -12 -247 136 -176 75 -247 "},"ȷ":{"ha":224,"x_min":0,"x_max":0,"o":"m -12 -247 b -125 -225 -50 -247 -96 -237 l -115 -178 b -15 -197 -90 -189 -49 -197 b 86 -78 44 -197 86 -147 l 86 718 l 136 718 l 136 -78 b -12 -247 136 -176 75 -247 "},"k":{"ha":694,"x_min":0,"x_max":0,"o":"m 353 389 l 658 0 l 594 0 l 318 354 l 154 186 l 154 0 l 104 0 l 104 971 l 154 971 l 154 258 l 606 718 l 675 718 "},"ķ":{"ha":694,"x_min":0,"x_max":0,"o":"m 353 389 l 658 0 l 594 0 l 318 354 l 154 186 l 154 0 l 104 0 l 104 971 l 154 971 l 154 258 l 606 718 l 675 718 m 363 -135 b 407 -193 389 -135 407 -156 b 326 -372 407 -242 381 -301 l 290 -346 b 363 -218 326 -304 353 -257 b 319 -176 336 -218 319 -200 b 363 -135 319 -153 338 -135 "},"l":{"ha":261,"x_min":0,"x_max":0,"o":"m 106 971 l 156 971 l 156 0 l 106 0 "},"ĺ":{"ha":261,"x_min":0,"x_max":0,"o":"m 274 1250 l 331 1238 l 167 1053 l 100 1053 m 106 971 l 156 971 l 156 0 l 106 0 "},"ľ":{"ha":261,"x_min":0,"x_max":0,"o":"m 106 971 l 156 971 l 156 0 l 106 0 m 231 760 b 303 888 267 801 293 849 b 260 929 276 888 260 906 b 303 971 260 953 278 971 b 347 913 329 971 347 950 b 267 733 347 864 321 804 "},"ł":{"ha":374,"x_min":0,"x_max":0,"o":"m 322 485 l 213 428 l 213 0 l 163 0 l 163 403 l 51 346 l 51 403 l 163 460 l 163 971 l 213 971 l 213 485 l 322 542 "},"m":{"ha":1192,"x_min":0,"x_max":0,"o":"m 843 735 b 1086 471 986 735 1086 625 l 1086 0 l 1036 0 l 1036 464 b 836 685 1036 593 953 685 b 621 471 710 685 621 596 l 621 0 l 571 0 l 571 464 b 371 685 571 593 488 685 b 156 471 244 685 156 596 l 156 0 l 106 0 l 106 718 l 156 718 l 156 610 b 378 735 186 686 269 735 b 603 579 485 735 567 674 b 843 735 632 672 726 735 "},"n":{"ha":767,"x_min":0,"x_max":0,"o":"m 393 735 b 661 471 550 735 661 625 l 661 0 l 611 0 l 611 464 b 386 685 611 593 518 685 b 157 458 251 685 157 590 l 157 0 l 107 0 l 107 718 l 157 718 l 157 593 b 393 735 193 679 281 735 "},"ń":{"ha":767,"x_min":0,"x_max":0,"o":"m 347 800 l 281 800 l 454 997 l 511 985 m 393 735 b 661 471 550 735 661 625 l 661 0 l 611 0 l 611 464 b 386 685 611 593 518 685 b 157 458 251 685 157 590 l 157 0 l 107 0 l 107 718 l 157 718 l 157 593 b 393 735 193 679 281 735 "},"ň":{"ha":767,"x_min":0,"x_max":0,"o":"m 350 800 l 203 990 l 264 990 l 381 843 l 500 990 l 561 990 l 411 800 m 393 735 b 661 471 550 735 661 625 l 661 0 l 611 0 l 611 464 b 386 685 611 593 518 685 b 157 458 251 685 157 590 l 157 0 l 107 0 l 107 718 l 157 718 l 157 593 b 393 735 193 679 281 735 "},"ņ":{"ha":767,"x_min":0,"x_max":0,"o":"m 393 735 b 661 471 550 735 661 625 l 661 0 l 611 0 l 611 464 b 386 685 611 593 518 685 b 157 458 251 685 157 590 l 157 0 l 107 0 l 107 718 l 157 718 l 157 593 b 393 735 193 679 281 735 m 381 -135 b 425 -193 407 -135 425 -156 b 344 -372 425 -242 399 -301 l 308 -346 b 381 -218 344 -304 371 -257 b 338 -176 354 -218 338 -200 b 381 -135 338 -153 356 -135 "},"ñ":{"ha":767,"x_min":0,"x_max":0,"o":"m 290 906 b 214 796 254 906 225 865 l 164 806 b 290 956 176 900 224 956 b 469 864 372 956 413 864 b 546 974 506 864 533 904 l 596 964 b 469 814 583 869 538 814 b 290 906 388 814 347 906 m 393 735 b 661 471 550 735 661 625 l 661 0 l 611 0 l 611 464 b 386 685 611 593 518 685 b 157 458 251 685 157 590 l 157 0 l 107 0 l 107 718 l 157 718 l 157 593 b 393 735 193 679 281 735 "},"o":{"ha":876,"x_min":0,"x_max":0,"o":"m 439 -17 b 67 360 238 -17 67 156 b 439 735 67 564 238 735 b 810 360 640 735 810 564 b 439 -17 810 156 640 -17 m 439 33 b 760 360 613 33 760 182 b 439 685 760 536 613 685 b 117 360 264 685 117 536 b 439 33 117 182 264 33 "},"ó":{"ha":876,"x_min":0,"x_max":0,"o":"m 510 997 l 567 985 l 403 800 l 336 800 m 439 -17 b 67 360 238 -17 67 156 b 439 735 67 564 238 735 b 810 360 640 735 810 564 b 439 -17 810 156 640 -17 m 439 33 b 760 360 613 33 760 182 b 439 685 760 536 613 685 b 117 360 264 685 117 536 b 439 33 117 182 264 33 "},"ô":{"ha":876,"x_min":0,"x_max":0,"o":"m 408 990 l 469 990 l 619 800 l 558 800 l 439 947 l 322 800 l 261 800 m 439 -17 b 67 360 238 -17 67 156 b 439 735 67 564 238 735 b 810 360 640 735 810 564 b 439 -17 810 156 640 -17 m 439 33 b 760 360 613 33 760 182 b 439 685 760 536 613 685 b 117 360 264 685 117 536 b 439 33 117 182 264 33 "},"ö":{"ha":876,"x_min":0,"x_max":0,"o":"m 306 851 b 264 893 282 851 264 871 b 306 935 264 915 282 935 b 347 893 328 935 347 915 b 306 851 347 871 328 851 m 572 851 b 531 893 549 851 531 871 b 572 935 531 915 549 935 b 614 893 594 935 614 915 b 572 851 614 871 594 851 m 439 -17 b 67 360 238 -17 67 156 b 439 735 67 564 238 735 b 810 360 640 735 810 564 b 439 -17 810 156 640 -17 m 439 33 b 760 360 613 33 760 182 b 439 685 760 536 613 685 b 117 360 264 685 117 536 b 439 33 117 182 264 33 "},"ò":{"ha":876,"x_min":0,"x_max":0,"o":"m 299 985 l 356 997 l 529 800 l 463 800 m 439 -17 b 67 360 238 -17 67 156 b 439 735 67 564 238 735 b 810 360 640 735 810 564 b 439 -17 810 156 640 -17 m 439 33 b 760 360 613 33 760 182 b 439 685 760 536 613 685 b 117 360 264 685 117 536 b 439 33 117 182 264 33 "},"ő":{"ha":876,"x_min":0,"x_max":0,"o":"m 457 997 l 514 985 l 350 800 l 283 800 m 688 997 l 744 985 l 581 800 l 514 800 m 439 -17 b 67 360 238 -17 67 156 b 439 735 67 564 238 735 b 810 360 640 735 810 564 b 439 -17 810 156 640 -17 m 439 33 b 760 360 613 33 760 182 b 439 685 760 536 613 685 b 117 360 264 685 117 536 b 439 33 117 182 264 33 "},"ō":{"ha":876,"x_min":0,"x_max":0,"o":"m 224 888 l 654 888 l 654 838 l 224 838 m 439 -17 b 67 360 238 -17 67 156 b 439 735 67 564 238 735 b 810 360 640 735 810 564 b 439 -17 810 156 640 -17 m 439 33 b 760 360 613 33 760 182 b 439 685 760 536 613 685 b 117 360 264 685 117 536 b 439 33 117 182 264 33 "},"ø":{"ha":876,"x_min":0,"x_max":0,"o":"m 700 624 b 810 360 768 556 810 461 b 439 -17 810 156 640 -17 b 218 58 357 -17 281 11 l 168 0 l 101 0 l 181 92 b 67 360 111 161 67 257 b 439 735 67 564 238 735 b 663 657 522 735 600 706 l 714 718 l 781 718 l 700 624 m 117 360 b 213 129 117 271 154 189 l 629 619 b 439 685 576 660 510 685 b 117 360 264 685 117 536 m 439 33 b 760 360 613 33 760 182 b 667 585 760 446 724 526 l 250 97 b 439 33 304 57 369 33 "},"õ":{"ha":876,"x_min":0,"x_max":0,"o":"m 528 814 b 349 906 446 814 406 906 b 272 796 313 906 283 865 l 222 806 b 349 956 235 900 282 956 b 528 864 431 956 471 864 b 604 974 564 864 592 904 l 654 964 b 528 814 642 869 596 814 m 439 -17 b 67 360 238 -17 67 156 b 439 735 67 564 238 735 b 810 360 640 735 810 564 b 439 -17 810 156 640 -17 m 439 33 b 760 360 613 33 760 182 b 439 685 760 536 613 685 b 117 360 264 685 117 536 b 439 33 117 182 264 33 "},"œ":{"ha":1519,"x_min":0,"x_max":0,"o":"m 1113 33 b 1378 132 1215 33 1318 67 l 1413 94 b 1113 -17 1353 29 1228 -17 b 785 225 965 -17 836 85 b 439 -17 729 85 593 -17 b 67 360 238 -17 67 156 b 439 735 67 564 238 735 b 783 497 593 735 728 635 b 1113 735 833 638 961 735 b 1454 336 1318 735 1454 575 l 811 336 b 1113 33 822 169 957 33 m 439 33 b 760 360 613 33 760 182 b 439 685 760 536 613 685 b 117 360 264 685 117 536 b 439 33 117 182 264 33 m 1113 685 b 811 386 951 685 822 554 l 1404 386 b 1113 685 1396 565 1282 685 "},"p":{"ha":846,"x_min":0,"x_max":0,"o":"m 449 735 b 771 360 624 735 771 564 b 449 -17 771 156 624 -17 b 165 150 324 -17 222 47 l 165 -239 l 115 -239 l 115 718 l 165 718 l 165 568 b 449 735 222 671 324 735 m 439 33 b 721 360 592 33 721 182 b 439 685 721 536 592 685 b 165 360 279 685 165 550 b 439 33 165 168 279 33 "},"þ":{"ha":846,"x_min":0,"x_max":0,"o":"m 449 735 b 771 360 624 735 771 564 b 449 -17 771 156 624 -17 b 165 150 324 -17 222 47 l 165 -239 l 115 -239 l 115 971 l 165 971 l 165 568 b 449 735 222 671 324 735 m 439 33 b 721 360 592 33 721 182 b 439 685 721 536 592 685 b 165 360 279 685 165 550 b 439 33 165 168 279 33 "},"q":{"ha":846,"x_min":0,"x_max":0,"o":"m 731 718 l 731 -239 l 681 -239 l 681 150 b 397 -17 624 47 522 -17 b 75 360 222 -17 75 156 b 397 735 75 564 222 735 b 681 568 522 735 624 671 l 681 718 m 407 33 b 681 360 567 33 681 168 b 407 685 681 550 567 685 b 125 360 254 685 125 536 b 407 33 125 182 254 33 "},"r":{"ha":482,"x_min":0,"x_max":0,"o":"m 165 554 b 443 735 196 656 311 735 l 443 685 b 165 401 281 685 165 567 l 165 0 l 115 0 l 115 718 l 165 718 l 165 554 "},"ŕ":{"ha":482,"x_min":0,"x_max":0,"o":"m 240 800 l 174 800 l 347 997 l 404 985 m 165 554 b 443 735 196 656 311 735 l 443 685 b 165 401 281 685 165 567 l 165 0 l 115 0 l 115 718 l 165 718 l 165 554 "},"ř":{"ha":482,"x_min":0,"x_max":0,"o":"m 243 800 l 96 990 l 157 990 l 274 843 l 393 990 l 454 990 l 304 800 m 165 554 b 443 735 196 656 311 735 l 443 685 b 165 401 281 685 165 567 l 165 0 l 115 0 l 115 718 l 165 718 l 165 554 "},"ŗ":{"ha":482,"x_min":0,"x_max":0,"o":"m 165 554 b 443 735 196 656 311 735 l 443 685 b 165 401 281 685 165 567 l 165 0 l 115 0 l 115 718 l 165 718 l 165 554 m 165 -135 b 210 -193 192 -135 210 -156 b 129 -372 210 -242 183 -301 l 93 -346 b 165 -218 129 -304 156 -257 b 122 -176 139 -218 122 -200 b 165 -135 122 -153 140 -135 "},"s":{"ha":675,"x_min":0,"x_max":0,"o":"m 360 -17 b 63 90 257 -17 146 24 l 93 129 b 360 33 176 69 275 33 b 558 167 468 33 558 94 b 350 343 558 247 499 297 b 111 551 179 396 111 456 b 349 735 111 651 219 735 b 606 654 433 735 528 704 l 575 615 b 349 685 506 658 422 685 b 161 557 247 685 161 626 b 375 388 161 485 222 436 b 608 172 542 335 608 274 b 360 -17 608 69 494 -17 "},"ś":{"ha":675,"x_min":0,"x_max":0,"o":"m 424 997 l 481 985 l 317 800 l 250 800 m 360 -17 b 63 90 257 -17 146 24 l 93 129 b 360 33 176 69 275 33 b 558 167 468 33 558 94 b 350 343 558 247 499 297 b 111 551 179 396 111 456 b 349 735 111 651 219 735 b 606 654 433 735 528 704 l 575 615 b 349 685 506 658 422 685 b 161 557 247 685 161 626 b 375 388 161 485 222 436 b 608 172 542 335 608 274 b 360 -17 608 69 494 -17 "},"š":{"ha":675,"x_min":0,"x_max":0,"o":"m 172 990 l 233 990 l 350 843 l 469 990 l 531 990 l 381 800 l 319 800 m 360 -17 b 63 90 257 -17 146 24 l 93 129 b 360 33 176 69 275 33 b 558 167 468 33 558 94 b 350 343 558 247 499 297 b 111 551 179 396 111 456 b 349 735 111 651 219 735 b 606 654 433 735 528 704 l 575 615 b 349 685 506 658 422 685 b 161 557 247 685 161 626 b 375 388 161 485 222 436 b 608 172 542 335 608 274 b 360 -17 608 69 494 -17 "},"ş":{"ha":675,"x_min":0,"x_max":0,"o":"m 608 172 b 371 -17 608 72 501 -11 l 351 -65 b 371 -62 358 -64 364 -62 b 463 -151 425 -62 463 -100 b 335 -267 463 -214 404 -267 b 222 -228 297 -267 256 -253 l 243 -182 b 335 -217 269 -204 303 -217 b 413 -151 376 -217 413 -185 b 354 -101 413 -122 389 -101 b 307 -117 338 -101 318 -108 l 285 -93 l 318 -14 b 63 90 228 -6 135 32 l 93 129 b 360 33 176 69 275 33 b 558 167 468 33 558 94 b 350 343 558 247 499 297 b 111 551 179 396 111 456 b 349 735 111 651 219 735 b 606 654 433 735 528 704 l 575 615 b 349 685 506 658 422 685 b 161 557 247 685 161 626 b 375 388 161 485 222 436 b 608 172 542 335 608 274 "},"ß":{"ha":742,"x_min":0,"x_max":0,"o":"m 117 726 b 378 982 117 865 236 982 b 638 728 519 982 638 865 b 517 507 638 632 588 540 b 675 265 610 467 675 367 b 421 0 675 121 558 0 l 286 0 l 286 50 l 393 50 b 625 272 519 50 625 151 b 389 476 625 392 528 476 l 286 476 l 286 526 l 381 526 b 588 721 501 526 588 607 b 378 932 588 836 492 932 b 167 718 263 932 167 835 l 167 0 l 117 0 "},"t":{"ha":500,"x_min":0,"x_max":0,"o":"m 458 29 b 325 -17 421 0 372 -17 b 178 167 239 -17 178 60 l 178 668 l 51 668 l 51 718 l 178 718 l 178 915 l 228 915 l 228 718 l 417 718 l 417 668 l 228 668 l 228 167 b 328 33 228 89 269 33 b 431 69 364 33 401 47 "},"ť":{"ha":500,"x_min":0,"x_max":0,"o":"m 565 971 b 610 913 592 971 610 950 b 529 733 610 864 583 804 l 493 760 b 565 888 529 801 556 849 b 522 929 539 888 522 906 b 565 971 522 953 540 971 m 328 33 b 431 69 364 33 401 47 l 458 29 b 325 -17 421 0 372 -17 b 178 167 239 -17 178 60 l 178 668 l 51 668 l 51 718 l 178 718 l 178 915 l 228 915 l 228 718 l 417 718 l 417 668 l 228 668 l 228 167 b 328 33 228 89 269 33 "},"ţ":{"ha":500,"x_min":0,"x_max":0,"o":"m 353 -62 b 444 -151 407 -62 444 -100 b 317 -267 444 -214 386 -267 b 204 -228 279 -267 238 -253 l 225 -182 b 317 -217 251 -204 285 -217 b 394 -151 358 -217 394 -185 b 336 -101 394 -122 371 -101 b 289 -117 319 -101 300 -108 l 267 -93 l 300 -14 b 178 167 228 -1 178 71 l 178 668 l 51 668 l 51 718 l 178 718 l 178 915 l 228 915 l 228 718 l 417 718 l 417 668 l 228 668 l 228 167 b 328 33 228 89 269 33 b 431 69 364 33 401 47 l 458 29 b 354 -15 429 6 392 -10 l 333 -65 b 353 -62 340 -64 346 -62 "},"u":{"ha":767,"x_min":0,"x_max":0,"o":"m 660 718 l 660 0 l 610 0 l 610 125 b 374 -17 574 39 486 -17 b 106 247 217 -17 106 93 l 106 718 l 156 718 l 156 254 b 381 33 156 125 249 33 b 610 260 515 33 610 128 l 610 718 "},"ú":{"ha":767,"x_min":0,"x_max":0,"o":"m 349 800 l 282 800 l 456 997 l 513 985 m 660 718 l 660 0 l 610 0 l 610 125 b 374 -17 574 39 486 -17 b 106 247 217 -17 106 93 l 106 718 l 156 718 l 156 254 b 381 33 156 125 249 33 b 610 260 515 33 610 128 l 610 718 "},"û":{"ha":767,"x_min":0,"x_max":0,"o":"m 265 800 l 204 800 l 351 990 l 413 990 l 563 800 l 501 800 l 382 947 m 660 718 l 660 0 l 610 0 l 610 125 b 374 -17 574 39 486 -17 b 106 247 217 -17 106 93 l 106 718 l 156 718 l 156 254 b 381 33 156 125 249 33 b 610 260 515 33 610 128 l 610 718 "},"ü":{"ha":767,"x_min":0,"x_max":0,"o":"m 249 851 b 207 893 225 851 207 871 b 249 935 207 915 225 935 b 290 893 271 935 290 915 b 249 851 290 871 271 851 m 515 851 b 474 893 492 851 474 871 b 515 935 474 915 492 935 b 557 893 538 935 557 915 b 515 851 557 871 538 851 m 660 718 l 660 0 l 610 0 l 610 125 b 374 -17 574 39 486 -17 b 106 247 217 -17 106 93 l 106 718 l 156 718 l 156 254 b 381 33 156 125 249 33 b 610 260 515 33 610 128 l 610 718 "},"ù":{"ha":767,"x_min":0,"x_max":0,"o":"m 404 800 l 240 985 l 297 997 l 471 800 m 660 718 l 660 0 l 610 0 l 610 125 b 374 -17 574 39 486 -17 b 106 247 217 -17 106 93 l 106 718 l 156 718 l 156 254 b 381 33 156 125 249 33 b 610 260 515 33 610 128 l 610 718 "},"ű":{"ha":767,"x_min":0,"x_max":0,"o":"m 293 800 l 226 800 l 400 997 l 457 985 m 457 800 l 631 997 l 688 985 l 524 800 m 610 718 l 660 718 l 660 0 l 610 0 l 610 125 b 374 -17 574 39 486 -17 b 106 247 217 -17 106 93 l 106 718 l 156 718 l 156 254 b 381 33 156 125 249 33 b 610 260 515 33 610 128 "},"ū":{"ha":767,"x_min":0,"x_max":0,"o":"m 597 838 l 167 838 l 167 888 l 597 888 m 660 718 l 660 0 l 610 0 l 610 125 b 374 -17 574 39 486 -17 b 106 247 217 -17 106 93 l 106 718 l 156 718 l 156 254 b 381 33 156 125 249 33 b 610 260 515 33 610 128 l 610 718 "},"ų":{"ha":767,"x_min":0,"x_max":0,"o":"m 769 -200 b 653 -240 739 -225 696 -240 b 515 -101 572 -240 515 -183 b 610 26 515 -39 553 11 l 610 125 b 374 -17 574 39 486 -17 b 106 247 217 -17 106 93 l 106 718 l 156 718 l 156 254 b 381 33 156 125 249 33 b 610 260 515 33 610 128 l 610 718 l 660 718 l 660 0 b 565 -97 600 0 565 -36 b 660 -190 565 -156 600 -190 b 742 -158 693 -190 724 -178 "},"ů":{"ha":767,"x_min":0,"x_max":0,"o":"m 382 818 b 239 961 304 818 239 883 b 382 1104 239 1039 304 1104 b 525 961 460 1104 525 1039 b 382 818 525 883 460 818 m 382 1057 b 286 961 331 1057 286 1013 b 382 865 286 910 331 865 b 478 961 433 865 478 910 b 382 1057 478 1013 433 1057 m 660 718 l 660 0 l 610 0 l 610 125 b 374 -17 574 39 486 -17 b 106 247 217 -17 106 93 l 106 718 l 156 718 l 156 254 b 381 33 156 125 249 33 b 610 260 515 33 610 128 l 610 718 "},"v":{"ha":764,"x_min":0,"x_max":0,"o":"m 38 718 l 92 718 l 382 85 l 672 718 l 726 718 l 397 0 l 367 0 "},"w":{"ha":1101,"x_min":0,"x_max":0,"o":"m 49 718 l 100 718 l 315 67 l 531 718 l 574 718 l 789 67 l 1004 718 l 1056 718 l 819 0 l 757 0 l 551 625 l 346 0 l 283 0 "},"ẃ":{"ha":1101,"x_min":0,"x_max":0,"o":"m 692 997 l 749 985 l 585 800 l 518 800 m 49 718 l 100 718 l 315 67 l 531 718 l 574 718 l 789 67 l 1004 718 l 1056 718 l 819 0 l 757 0 l 551 625 l 346 0 l 283 0 "},"ŵ":{"ha":1101,"x_min":0,"x_max":0,"o":"m 521 990 l 582 990 l 732 800 l 671 800 l 551 947 l 435 800 l 374 800 m 49 718 l 100 718 l 315 67 l 531 718 l 574 718 l 789 67 l 1004 718 l 1056 718 l 819 0 l 757 0 l 551 625 l 346 0 l 283 0 "},"ẅ":{"ha":1101,"x_min":0,"x_max":0,"o":"m 418 851 b 376 893 394 851 376 871 b 418 935 376 915 394 935 b 460 893 440 935 460 915 b 418 851 460 871 440 851 m 685 851 b 643 893 661 851 643 871 b 685 935 643 915 661 935 b 726 893 707 935 726 915 b 685 851 726 871 707 851 m 49 718 l 100 718 l 315 67 l 531 718 l 574 718 l 789 67 l 1004 718 l 1056 718 l 819 0 l 757 0 l 551 625 l 346 0 l 283 0 "},"ẁ":{"ha":1101,"x_min":0,"x_max":0,"o":"m 358 985 l 415 997 l 589 800 l 522 800 m 49 718 l 100 718 l 315 67 l 531 718 l 574 718 l 789 67 l 1004 718 l 1056 718 l 819 0 l 757 0 l 551 625 l 346 0 l 283 0 "},"x":{"ha":704,"x_min":0,"x_max":0,"o":"m 599 0 l 353 326 l 106 0 l 44 0 l 322 367 l 56 718 l 117 718 l 353 407 l 588 718 l 649 718 l 383 367 l 660 0 "},"y":{"ha":788,"x_min":0,"x_max":0,"o":"m 176 -250 b 63 -226 138 -250 94 -242 l 76 -175 b 176 -200 108 -190 144 -200 b 318 -131 240 -200 293 -174 l 361 -29 l 42 718 l 96 718 l 388 35 l 668 718 l 722 718 l 385 -106 b 176 -250 346 -201 278 -249 "},"ý":{"ha":788,"x_min":0,"x_max":0,"o":"m 461 997 l 518 985 l 354 800 l 288 800 m 176 -250 b 63 -226 138 -250 94 -242 l 76 -175 b 176 -200 108 -190 144 -200 b 318 -131 240 -200 293 -174 l 361 -29 l 42 718 l 96 718 l 388 35 l 668 718 l 722 718 l 385 -106 b 176 -250 346 -201 278 -249 "},"ŷ":{"ha":788,"x_min":0,"x_max":0,"o":"m 357 990 l 418 990 l 568 800 l 507 800 l 388 947 l 271 800 l 210 800 m 176 -250 b 63 -226 138 -250 94 -242 l 76 -175 b 176 -200 108 -190 144 -200 b 318 -131 240 -200 293 -174 l 361 -29 l 42 718 l 96 718 l 388 35 l 668 718 l 722 718 l 385 -106 b 176 -250 346 -201 278 -249 "},"ÿ":{"ha":788,"x_min":0,"x_max":0,"o":"m 254 851 b 213 893 231 851 213 871 b 254 935 213 915 231 935 b 296 893 276 935 296 915 b 254 851 296 871 276 851 m 521 851 b 479 893 497 851 479 871 b 521 935 479 915 497 935 b 563 893 543 935 563 915 b 521 851 563 871 543 851 m 176 -250 b 63 -226 138 -250 94 -242 l 76 -175 b 176 -200 108 -190 144 -200 b 318 -131 240 -200 293 -174 l 361 -29 l 42 718 l 96 718 l 388 35 l 668 718 l 722 718 l 385 -106 b 176 -250 346 -201 278 -249 "},"ỳ":{"ha":788,"x_min":0,"x_max":0,"o":"m 257 985 l 314 997 l 488 800 l 421 800 m 176 -250 b 63 -226 138 -250 94 -242 l 76 -175 b 176 -200 108 -190 144 -200 b 318 -131 240 -200 293 -174 l 361 -29 l 42 718 l 96 718 l 388 35 l 668 718 l 722 718 l 385 -106 b 176 -250 346 -201 278 -249 "},"z":{"ha":714,"x_min":0,"x_max":0,"o":"m 75 42 l 574 668 l 83 668 l 83 718 l 639 718 l 639 676 l 140 50 l 642 50 l 642 0 l 75 0 "},"ź":{"ha":714,"x_min":0,"x_max":0,"o":"m 433 997 l 490 985 l 326 800 l 260 800 m 75 42 l 574 668 l 83 668 l 83 718 l 639 718 l 639 676 l 140 50 l 642 50 l 642 0 l 75 0 "},"ž":{"ha":714,"x_min":0,"x_max":0,"o":"m 182 990 l 243 990 l 360 843 l 479 990 l 540 990 l 390 800 l 329 800 m 75 42 l 574 668 l 83 668 l 83 718 l 639 718 l 639 676 l 140 50 l 642 50 l 642 0 l 75 0 "},"ż":{"ha":714,"x_min":0,"x_max":0,"o":"m 360 851 b 318 893 336 851 318 871 b 360 935 318 915 336 935 b 401 893 382 935 401 915 b 360 851 401 871 382 851 m 75 42 l 574 668 l 83 668 l 83 718 l 639 718 l 639 676 l 140 50 l 642 50 l 642 0 l 75 0 "},"*":{"ha":499,"x_min":0,"x_max":0,"o":"m 249 561 b 224 585 235 561 224 572 b 240 735 224 628 235 679 b 119 644 194 701 158 664 b 86 654 110 639 93 643 b 94 688 79 667 83 681 b 232 749 131 710 181 725 b 94 810 181 772 133 790 b 86 843 85 815 79 831 b 119 853 93 854 108 860 b 240 763 156 831 194 796 b 224 913 235 818 224 869 b 249 936 224 925 235 936 b 274 913 263 936 274 925 b 257 763 274 869 263 818 b 378 853 303 796 340 833 b 411 843 389 858 406 854 b 403 810 419 831 414 817 b 265 749 368 788 317 772 b 403 688 317 725 365 707 b 411 654 414 682 419 667 b 378 644 406 643 389 638 b 257 735 343 667 303 701 b 274 585 263 679 274 628 b 249 561 274 572 263 561 "},"\\":{"ha":513,"x_min":0,"x_max":0,"o":"m -7 1032 l 47 1032 l 535 -103 l 481 -103 "},":":{"ha":285,"x_min":0,"x_max":0,"o":"m 144 607 b 101 650 119 607 101 626 b 144 690 101 671 119 690 b 185 650 167 690 185 671 b 144 607 185 626 167 607 m 144 -17 b 101 26 119 -17 101 3 b 144 67 101 47 119 67 b 185 26 167 67 185 47 b 144 -17 185 3 167 -17 "},",":{"ha":335,"x_min":0,"x_max":0,"o":"m 110 -144 b 182 -17 146 -103 172 -56 b 139 25 156 -17 139 1 b 182 67 139 49 157 67 b 226 8 208 67 226 46 b 146 -171 226 -40 200 -100 "},"…":{"ha":786,"x_min":0,"x_max":0,"o":"m 144 -17 b 101 26 119 -17 101 3 b 144 67 101 47 119 67 b 185 26 167 67 185 47 b 144 -17 185 3 167 -17 m 394 -17 b 351 26 369 -17 351 3 b 394 67 351 47 369 67 b 435 26 417 67 435 47 b 394 -17 435 3 417 -17 m 644 -17 b 601 26 619 -17 601 3 b 644 67 601 47 619 67 b 685 26 667 67 685 47 b 644 -17 685 3 667 -17 "},"!":{"ha":313,"x_min":0,"x_max":0,"o":"m 132 954 l 182 954 l 182 268 l 132 268 m 158 -17 b 115 26 133 -17 115 3 b 158 67 115 47 133 67 b 199 26 181 67 199 47 b 158 -17 199 3 181 -17 "},"¡":{"ha":313,"x_min":0,"x_max":0,"o":"m 154 735 b 197 692 179 735 197 715 b 154 651 197 671 179 651 b 114 692 132 651 114 671 b 154 735 114 715 132 735 m 181 -236 l 131 -236 l 131 450 l 181 450 "},"#":{"ha":928,"x_min":0,"x_max":0,"o":"m 678 638 l 596 317 l 779 317 l 767 267 l 583 267 l 517 0 l 465 0 l 532 267 l 283 267 l 217 0 l 165 0 l 232 267 l 54 267 l 67 317 l 244 317 l 326 638 l 146 638 l 158 688 l 339 688 l 406 954 l 457 954 l 390 688 l 639 688 l 706 954 l 757 954 l 690 688 l 872 688 l 860 638 m 626 638 l 378 638 l 296 317 l 544 317 "},".":{"ha":285,"x_min":0,"x_max":0,"o":"m 144 -17 b 101 26 119 -17 101 3 b 144 67 101 47 119 67 b 185 26 167 67 185 47 b 144 -17 185 3 167 -17 "},"?":{"ha":675,"x_min":0,"x_max":0,"o":"m 286 494 b 564 710 449 507 564 597 b 347 921 564 825 465 921 b 74 776 233 921 143 874 l 38 811 b 350 971 124 918 226 971 b 614 714 493 971 614 853 b 336 453 614 588 499 481 l 336 268 l 286 268 m 313 -17 b 269 26 288 -17 269 3 b 313 67 269 47 288 67 b 353 26 335 67 353 47 b 313 -17 353 3 335 -17 "},"¿":{"ha":675,"x_min":0,"x_max":0,"o":"m 363 735 b 406 692 388 735 406 715 b 363 651 406 671 388 651 b 322 692 340 651 322 671 b 363 735 322 715 340 735 m 389 224 b 111 8 226 211 111 121 b 328 -203 111 -107 210 -203 b 601 -58 442 -203 532 -156 l 638 -93 b 325 -253 551 -200 449 -253 b 61 4 182 -253 61 -135 b 339 265 61 131 176 238 l 339 450 l 389 450 "},"\"":{"ha":532,"x_min":0,"x_max":0,"o":"m 121 633 b 99 856 113 714 99 811 b 140 897 99 879 118 897 b 182 856 163 897 182 879 b 160 633 182 811 168 714 l 121 633 m 372 633 b 350 856 364 714 350 811 b 392 897 350 879 369 897 b 433 856 414 897 433 879 b 411 633 433 811 419 714 l 372 633 "},"'":{"ha":281,"x_min":0,"x_max":0,"o":"m 121 633 b 99 856 113 714 99 811 b 140 897 99 879 118 897 b 182 856 163 897 182 879 b 160 633 182 811 168 714 l 121 633 "},";":{"ha":335,"x_min":0,"x_max":0,"o":"m 182 607 b 139 650 157 607 139 626 b 182 690 139 671 157 690 b 222 650 204 690 222 671 b 182 607 222 626 204 607 m 110 -144 b 182 -17 146 -103 172 -56 b 139 25 156 -17 139 1 b 182 67 139 49 157 67 b 226 8 208 67 226 46 b 146 -171 226 -40 200 -100 "},"/":{"ha":513,"x_min":0,"x_max":0,"o":"m 465 1032 l 519 1032 l 32 -103 l -22 -103 "},"_":{"ha":822,"x_min":0,"x_max":0,"o":"m -3 -126 l 825 -126 l 825 -176 l -3 -176 "},"{":{"ha":544,"x_min":0,"x_max":0,"o":"m 475 -231 b 217 4 290 -210 217 -143 l 217 200 b 60 344 217 303 172 344 l 60 394 b 217 539 172 394 217 436 l 217 733 b 475 968 217 881 290 947 l 481 919 b 265 728 326 903 265 847 l 267 528 b 169 369 267 435 239 389 b 267 210 239 349 267 303 l 265 11 b 481 -182 265 -110 326 -165 l 475 -231 "},"}":{"ha":544,"x_min":0,"x_max":0,"o":"m 64 -182 b 279 11 218 -165 279 -110 l 278 210 b 375 369 278 303 306 349 b 278 528 306 389 278 435 l 279 728 b 64 919 279 847 218 903 l 69 968 b 328 733 254 947 328 881 l 328 539 b 485 394 328 436 372 394 l 485 344 b 328 200 372 344 328 303 l 328 4 b 69 -231 328 -143 254 -210 "},"[":{"ha":488,"x_min":0,"x_max":0,"o":"m 113 1019 l 419 1019 l 419 969 l 163 969 l 163 -110 l 419 -110 l 419 -160 l 113 -160 "},"]":{"ha":488,"x_min":0,"x_max":0,"o":"m 68 -110 l 325 -110 l 325 969 l 68 969 l 68 1019 l 375 1019 l 375 -160 l 68 -160 "},"(":{"ha":458,"x_min":0,"x_max":0,"o":"m 360 -236 b 86 368 188 -61 86 164 b 360 972 86 569 188 794 l 394 936 b 136 368 232 769 136 558 b 394 -199 136 178 232 -33 l 360 -236 "},")":{"ha":458,"x_min":0,"x_max":0,"o":"m 64 -199 b 322 368 226 -33 322 178 b 64 936 322 558 226 769 l 99 972 b 372 368 271 794 372 569 b 99 -236 372 164 271 -61 "},"—":{"ha":1225,"x_min":0,"x_max":0,"o":"m 78 403 l 1147 403 l 1147 353 l 78 353 "},"–":{"ha":801,"x_min":0,"x_max":0,"o":"m 78 403 l 724 403 l 724 353 l 78 353 "},"-":{"ha":515,"x_min":0,"x_max":0,"o":"m 78 403 l 438 403 l 438 353 l 78 353 "},"“":{"ha":585,"x_min":0,"x_max":0,"o":"m 225 894 b 153 767 189 853 163 806 b 196 725 179 767 196 749 b 153 683 196 701 178 683 b 108 742 126 683 108 704 b 189 921 108 790 135 850 m 475 894 b 403 767 439 853 413 806 b 446 725 429 767 446 749 b 403 683 446 701 428 683 b 358 742 376 683 358 704 b 439 921 358 790 385 850 "},"”":{"ha":585,"x_min":0,"x_max":0,"o":"m 110 688 b 182 815 146 729 172 776 b 139 857 156 815 139 833 b 182 899 139 881 157 899 b 226 840 208 899 226 878 b 146 661 226 792 200 732 m 360 688 b 432 815 396 729 422 776 b 389 857 406 815 389 833 b 432 899 389 881 407 899 b 476 840 458 899 476 878 b 396 661 476 792 450 732 "},"‘":{"ha":335,"x_min":0,"x_max":0,"o":"m 225 894 b 153 767 189 853 163 806 b 196 725 179 767 196 749 b 153 683 196 701 178 683 b 108 742 126 683 108 704 b 189 921 108 790 135 850 "},"’":{"ha":335,"x_min":0,"x_max":0,"o":"m 110 688 b 182 815 146 729 172 776 b 139 857 156 815 139 833 b 182 899 139 881 157 899 b 226 840 208 899 226 878 b 146 661 226 792 200 732 "}," ":{"ha":403,"x_min":0,"x_max":0,"o":""},"¢":{"ha":725,"x_min":0,"x_max":0,"o":"m 431 33 b 636 124 508 35 582 69 l 671 89 b 431 -17 608 25 522 -15 l 431 -103 l 381 -103 l 381 -14 b 67 360 194 6 67 154 b 381 732 67 564 194 713 l 381 818 l 431 818 l 431 735 b 671 629 522 733 608 693 l 635 594 b 431 685 582 649 508 683 l 431 33 m 117 360 b 381 36 117 185 224 57 l 381 682 b 117 360 224 661 117 533 "},"$":{"ha":838,"x_min":0,"x_max":0,"o":"m 763 246 b 446 -15 763 94 632 -12 l 446 -103 l 396 -103 l 396 -14 b 64 136 271 -3 151 50 l 94 175 b 396 38 172 97 282 47 l 396 468 b 111 700 193 518 111 586 b 396 972 111 853 228 964 l 396 1054 l 446 1054 l 446 971 b 746 836 553 964 661 915 l 715 797 b 446 921 642 869 546 913 l 446 507 l 449 507 b 763 246 672 454 763 379 m 161 704 b 396 521 161 621 229 567 l 396 922 b 161 704 257 915 161 826 m 446 35 b 713 242 601 36 713 122 b 446 456 713 346 636 408 l 446 35 "},"€":{"ha":944,"x_min":0,"x_max":0,"o":"m 561 33 b 868 165 679 33 789 83 l 904 129 b 561 -17 815 40 693 -17 b 89 350 339 -17 147 142 l -33 350 l -33 400 l 79 400 b 72 478 75 425 72 451 b 83 582 72 514 76 549 l -33 582 l -33 632 l 97 632 b 561 971 164 826 349 971 b 904 825 693 971 815 915 l 868 790 b 561 921 789 871 679 921 b 150 632 376 921 214 799 l 656 632 l 656 582 l 135 582 b 122 478 126 549 122 514 b 129 400 122 451 125 425 l 656 400 l 656 350 l 142 350 b 561 33 197 168 365 33 "},"£":{"ha":790,"x_min":0,"x_max":0,"o":"m 726 50 l 726 0 l 76 0 l 76 25 l 140 50 l 140 385 l 76 385 l 76 435 l 140 435 l 140 643 b 426 971 140 835 258 971 b 710 804 556 971 660 908 l 675 774 b 426 921 632 867 539 921 b 190 643 288 921 190 806 l 190 435 l 486 435 l 486 385 l 190 385 l 190 50 "},"¥":{"ha":878,"x_min":0,"x_max":0,"o":"m 497 436 l 756 436 l 756 386 l 464 386 l 464 232 l 756 232 l 756 182 l 464 182 l 464 0 l 414 0 l 414 182 l 122 182 l 122 232 l 414 232 l 414 386 l 122 386 l 122 436 l 381 436 l 25 954 l 89 954 l 439 444 l 789 954 l 853 954 "},"+":{"ha":824,"x_min":0,"x_max":0,"o":"m 731 439 l 438 439 l 438 146 l 388 146 l 388 439 l 93 439 l 93 489 l 388 489 l 388 783 l 438 783 l 438 489 l 731 489 "},"−":{"ha":824,"x_min":0,"x_max":0,"o":"m 93 489 l 731 489 l 731 439 l 93 439 "},"×":{"ha":715,"x_min":0,"x_max":0,"o":"m 393 464 l 600 257 l 565 221 l 358 429 l 150 221 l 115 257 l 322 464 l 114 672 l 150 707 l 358 500 l 565 707 l 601 672 "},"÷":{"ha":824,"x_min":0,"x_max":0,"o":"m 414 647 b 371 690 389 647 371 667 b 414 731 371 711 389 731 b 454 690 436 731 454 711 b 414 647 454 667 436 647 m 93 489 l 731 489 l 731 439 l 93 439 m 414 197 b 371 240 389 197 371 217 b 414 281 371 261 389 281 b 454 240 436 281 454 261 b 414 197 454 217 436 197 "},"=":{"ha":824,"x_min":0,"x_max":0,"o":"m 93 642 l 731 642 l 731 592 l 93 592 m 93 336 l 731 336 l 731 286 l 93 286 "},">":{"ha":814,"x_min":0,"x_max":0,"o":"m 106 203 l 672 478 l 106 753 l 106 814 l 738 508 l 738 447 l 106 142 "},"<":{"ha":814,"x_min":0,"x_max":0,"o":"m 76 447 l 76 508 l 708 814 l 708 753 l 142 478 l 708 203 l 708 142 "},"~":{"ha":626,"x_min":0,"x_max":0,"o":"m 403 432 b 224 524 321 432 281 524 b 147 414 188 524 158 483 l 97 424 b 224 574 110 518 157 574 b 403 482 306 574 346 482 b 479 592 439 482 467 522 l 529 582 b 403 432 517 488 471 432 "},"%":{"ha":1068,"x_min":0,"x_max":0,"o":"m 267 485 b 65 721 149 485 65 582 b 268 963 65 863 149 963 b 471 724 388 963 471 864 b 267 485 471 583 386 485 m 828 954 l 894 954 l 242 0 l 175 0 m 268 535 b 421 722 357 535 421 613 b 267 913 421 833 357 913 b 115 722 178 913 115 833 b 268 535 115 613 179 535 m 797 -14 b 596 225 679 -14 596 85 b 799 464 596 365 679 464 b 1001 226 918 464 1001 365 b 797 -14 1001 86 917 -14 m 799 36 b 951 225 888 36 951 114 b 797 414 951 336 888 414 b 646 226 708 414 646 336 b 799 36 646 115 710 36 "},"‰":{"ha":1585,"x_min":0,"x_max":0,"o":"m 267 485 b 65 721 149 485 65 582 b 268 963 65 863 149 963 b 471 724 388 963 471 864 b 267 485 471 583 386 485 m 828 954 l 894 954 l 242 0 l 175 0 m 268 535 b 421 722 357 535 421 613 b 267 913 421 833 357 913 b 115 722 178 913 115 833 b 268 535 115 613 179 535 m 797 -14 b 596 225 679 -14 596 85 b 799 464 596 365 679 464 b 1001 226 918 464 1001 365 b 797 -14 1001 86 917 -14 m 1314 -14 b 1113 225 1196 -14 1113 85 b 1315 464 1113 365 1196 464 b 1518 226 1435 464 1518 365 b 1314 -14 1518 86 1433 -14 m 799 36 b 951 225 888 36 951 114 b 797 414 951 336 888 414 b 646 226 708 414 646 336 b 799 36 646 115 710 36 m 1315 36 b 1468 225 1404 36 1468 114 b 1314 414 1468 336 1404 414 b 1163 226 1225 414 1163 336 b 1315 36 1163 115 1226 36 "},"@":{"ha":1224,"x_min":0,"x_max":0,"o":"m 592 -161 b 61 360 304 -161 61 76 b 642 938 61 674 326 938 b 1163 443 925 938 1163 711 b 919 108 1163 217 1042 108 b 768 228 840 108 783 153 b 535 108 717 161 631 108 b 322 349 410 108 322 208 b 625 696 322 538 461 696 b 824 583 724 696 793 643 l 843 675 l 899 668 b 821 265 849 447 821 300 b 933 158 821 199 871 158 b 1113 443 1010 158 1113 249 b 639 888 1113 685 896 888 b 114 361 354 888 114 647 b 594 -112 114 104 333 -112 b 894 -28 708 -112 793 -89 l 919 -65 b 592 -161 813 -133 718 -161 m 547 158 b 790 408 678 158 765 276 b 631 646 817 547 750 646 b 372 354 490 646 372 513 b 547 158 372 239 444 158 "},"&":{"ha":896,"x_min":0,"x_max":0,"o":"m 788 -10 b 642 139 733 44 685 94 b 360 -17 553 31 464 -17 b 57 258 196 -17 57 104 b 296 528 57 415 203 489 b 194 743 221 625 194 681 b 411 965 194 861 293 965 b 628 744 526 965 628 864 b 376 507 628 621 518 565 b 638 219 447 424 539 324 b 775 460 682 282 726 361 l 821 439 b 674 182 769 333 721 249 b 838 14 726 126 782 69 m 410 915 b 244 742 319 915 244 835 b 343 547 244 689 269 639 b 578 746 489 607 578 651 b 410 915 578 833 501 915 m 358 33 b 606 176 447 33 526 76 b 328 488 481 307 397 401 b 107 256 226 444 107 379 b 358 33 107 135 222 33 "},"|":{"ha":353,"x_min":0,"x_max":0,"o":"m 151 1032 l 201 1032 l 201 -103 l 151 -103 "},"^":{"ha":653,"x_min":0,"x_max":0,"o":"m 297 954 l 356 954 l 578 574 l 517 574 l 326 899 l 136 574 l 75 574 "},"̦":{"ha":0,"x_min":0,"x_max":0,"o":"m -225 -346 b -153 -218 -189 -304 -162 -257 b -196 -176 -179 -218 -196 -200 b -153 -135 -196 -153 -178 -135 b -108 -193 -126 -135 -108 -156 b -189 -372 -108 -242 -135 -301 "},"´":{"ha":406,"x_min":0,"x_max":0,"o":"m 261 997 l 318 985 l 154 800 l 88 800 "},"˘":{"ha":581,"x_min":0,"x_max":0,"o":"m 290 818 b 88 901 217 818 144 846 l 124 938 b 290 869 168 893 229 869 b 457 938 351 869 413 893 l 493 901 b 290 818 438 846 364 818 "},"ˇ":{"ha":533,"x_min":0,"x_max":0,"o":"m 88 990 l 149 990 l 265 843 l 385 990 l 446 990 l 296 800 l 235 800 "},"¸":{"ha":415,"x_min":0,"x_max":0,"o":"m 236 -62 b 328 -151 290 -62 328 -100 b 200 -267 328 -214 269 -267 b 88 -228 163 -267 121 -253 l 108 -182 b 200 -217 135 -204 168 -217 b 278 -151 242 -217 278 -185 b 219 -101 278 -122 254 -101 b 172 -117 203 -101 183 -108 l 150 -93 l 196 15 l 250 15 l 217 -65 b 236 -62 224 -64 229 -62 "},"ˆ":{"ha":533,"x_min":0,"x_max":0,"o":"m 235 990 l 296 990 l 446 800 l 385 800 l 265 947 l 149 800 l 88 800 "},"¨":{"ha":569,"x_min":0,"x_max":0,"o":"m 151 851 b 110 893 128 851 110 871 b 151 935 110 915 128 935 b 193 893 174 935 193 915 b 151 851 193 871 174 851 m 418 851 b 376 893 394 851 376 871 b 418 935 376 915 394 935 b 460 893 440 935 460 915 b 418 851 460 871 440 851 "},"˙":{"ha":258,"x_min":0,"x_max":0,"o":"m 129 851 b 88 893 106 851 88 871 b 129 935 88 915 106 935 b 171 893 151 935 171 915 b 129 851 171 871 151 851 "},"`":{"ha":406,"x_min":0,"x_max":0,"o":"m 88 985 l 144 997 l 318 800 l 251 800 "},"˝":{"ha":636,"x_min":0,"x_max":0,"o":"m 261 997 l 318 985 l 154 800 l 88 800 m 492 997 l 549 985 l 385 800 l 318 800 "},"¯":{"ha":606,"x_min":0,"x_max":0,"o":"m 88 888 l 518 888 l 518 838 l 88 838 "},"˛":{"ha":429,"x_min":0,"x_max":0,"o":"m 225 -240 b 88 -101 144 -240 88 -183 b 199 29 88 -33 133 21 l 232 0 b 138 -97 172 0 138 -36 b 232 -190 138 -156 172 -190 b 314 -158 265 -190 296 -178 l 342 -200 b 225 -240 311 -225 268 -240 "},"˚":{"ha":461,"x_min":0,"x_max":0,"o":"m 231 818 b 88 961 153 818 88 883 b 231 1104 88 1039 153 1104 b 374 961 308 1104 374 1039 b 231 818 374 883 308 818 m 231 865 b 326 961 282 865 326 910 b 231 1057 326 1013 282 1057 b 135 961 179 1057 135 1013 b 231 865 135 910 179 865 "},"˜":{"ha":626,"x_min":0,"x_max":0,"o":"m 403 814 b 224 906 321 814 281 906 b 147 796 188 906 158 865 l 97 806 b 224 956 110 900 157 956 b 403 864 306 956 346 864 b 479 974 439 864 467 904 l 529 964 b 403 814 517 869 471 814 "}}}
